<svg width="87" height="15" viewBox="0 0 87 15" fill="none" xmlns="http://www.w3.org/2000/svg">
<path d="M7.2485 3.52178C7.28936 3.63416 7.31746 3.73122 7.33278 3.81295C7.35322 3.88957 7.36599 3.96364 7.37109 4.03516C7.38131 4.10156 7.38386 4.17563 7.37876 4.25736C7.37876 4.33398 7.37876 4.42849 7.37876 4.54087C7.37876 4.66857 7.39408 4.79117 7.42473 4.90865C7.45538 5.02614 7.47581 5.14363 7.48603 5.26112C7.49624 5.34796 7.4988 5.4348 7.49369 5.52163C7.48858 5.60337 7.48603 5.6851 7.48603 5.76683C7.48603 5.98648 7.50901 6.18314 7.55499 6.35682C7.60096 6.5305 7.69802 6.69907 7.84615 6.86253C7.84615 6.88807 7.8436 6.91361 7.83849 6.93915C7.83338 6.96469 7.83083 6.99279 7.83083 7.02344C7.83083 7.13071 7.85637 7.23543 7.90745 7.33759C7.95853 7.43465 7.99684 7.53425 8.02239 7.63642C8.03771 7.70793 8.04537 7.81265 8.04537 7.95057C8.05048 8.08338 8.05559 8.2213 8.0607 8.36433C8.07091 8.50736 8.08879 8.64017 8.11433 8.76277C8.14498 8.88026 8.19096 8.95944 8.25225 9.0003C8.27269 9.11268 8.29056 9.26082 8.30589 9.44471C8.32632 9.6235 8.35442 9.80484 8.39017 9.98873C8.43104 10.1726 8.48468 10.3438 8.55108 10.5021C8.61749 10.6553 8.70688 10.7601 8.81926 10.8163C8.85502 10.6988 8.89333 10.5889 8.93419 10.4868C8.97506 10.3795 9.01337 10.2722 9.04913 10.165C9.08489 10.0577 9.11298 9.94787 9.13341 9.83549C9.15895 9.72311 9.16917 9.60051 9.16406 9.4677C9.22536 9.4064 9.26878 9.33744 9.29432 9.26082C9.32497 9.18419 9.3454 9.10502 9.35562 9.02329C9.37094 8.94156 9.38116 8.85983 9.38627 8.7781C9.39648 8.69636 9.41181 8.61719 9.43224 8.54056C9.47311 8.39243 9.51653 8.26728 9.5625 8.16511C9.60847 8.05784 9.64678 7.95313 9.67743 7.85096C9.71319 7.7488 9.74129 7.63897 9.76172 7.52148C9.78726 7.404 9.79748 7.25841 9.79237 7.08474C9.9405 6.82422 10.0529 6.53561 10.1295 6.2189C10.2061 5.89709 10.2444 5.58293 10.2444 5.27644C10.2444 5.1845 10.2572 5.08999 10.2828 4.99294C10.3134 4.89078 10.3466 4.78861 10.3824 4.68645C10.4181 4.57918 10.4539 4.47701 10.4896 4.37996C10.5305 4.27779 10.5637 4.18074 10.5892 4.08879C10.6046 3.99174 10.6122 3.89724 10.6122 3.80529C10.6173 3.71334 10.6378 3.61884 10.6735 3.52178C10.6991 3.44516 10.7272 3.36854 10.7578 3.29192C10.7885 3.21019 10.8166 3.13101 10.8421 3.05439C10.8727 2.95733 10.8932 2.86028 10.9034 2.76322C10.9187 2.66617 10.9468 2.57422 10.9877 2.48738C11.049 2.42097 11.1001 2.35201 11.1409 2.2805C11.1869 2.20388 11.2508 2.14258 11.3325 2.0966L11.3785 1.997C11.4551 1.95613 11.524 1.92804 11.5853 1.91271C11.6466 1.89739 11.7054 1.88972 11.7616 1.88972C11.8229 1.88972 11.8867 1.88972 11.9531 1.88972C12.0195 1.88972 12.0936 1.88462 12.1753 1.8744C12.303 2.0021 12.3975 2.15024 12.4588 2.31881C12.5201 2.48738 12.5508 2.6585 12.5508 2.83218C12.5508 2.92924 12.5355 3.02374 12.5048 3.11569C12.4793 3.20252 12.4512 3.29192 12.4205 3.38386C12.3899 3.4707 12.3592 3.5601 12.3286 3.65204C12.303 3.73888 12.2903 3.83083 12.2903 3.92788C12.2903 3.95853 12.2903 3.99429 12.2903 4.03516C12.2954 4.07091 12.3056 4.10412 12.3209 4.13477C12.229 4.2829 12.1626 4.43104 12.1217 4.57918C12.0859 4.72731 12.0578 4.87545 12.0374 5.02359C12.0221 5.17172 12.0068 5.32242 11.9914 5.47566C11.9812 5.6238 11.9582 5.77704 11.9225 5.9354C11.9072 6.01713 11.8765 6.08864 11.8305 6.14994C11.7846 6.21124 11.7539 6.28275 11.7386 6.36448C11.6773 6.71184 11.6109 7.05153 11.5394 7.38356C11.473 7.71049 11.3759 8.03996 11.2482 8.372C11.2022 8.4997 11.1511 8.6274 11.095 8.75511C11.0388 8.88281 10.9877 9.01052 10.9417 9.13822C10.8957 9.26593 10.86 9.39618 10.8344 9.529C10.8089 9.66181 10.8012 9.79973 10.8114 9.94276C10.6837 10.0654 10.5995 10.216 10.5586 10.3948C10.5177 10.5736 10.4973 10.7524 10.4973 10.9312C10.4564 10.9721 10.4079 11.0436 10.3517 11.1457C10.3006 11.2479 10.2495 11.3577 10.1985 11.4752C10.1474 11.5927 10.0963 11.7076 10.0452 11.82C9.99925 11.9324 9.96094 12.0218 9.93029 12.0882V12.1648C9.9405 12.2159 9.93795 12.2619 9.92263 12.3027C9.9073 12.3436 9.89453 12.387 9.88431 12.433C9.80769 12.5249 9.73107 12.6194 9.65445 12.7165C9.58293 12.8136 9.50376 12.9029 9.41692 12.9847C9.33519 13.0664 9.24324 13.1354 9.14108 13.1916C9.03891 13.2529 8.92653 13.2886 8.80394 13.2988C8.62515 13.2222 8.47957 13.1558 8.36719 13.0996C8.25992 13.0485 8.16797 12.9872 8.09135 12.9157C8.01472 12.8391 7.94576 12.7471 7.88447 12.6399C7.82828 12.5275 7.76442 12.3768 7.69291 12.1878L7.5933 12.1342C7.51668 11.9758 7.45793 11.8149 7.41707 11.6514C7.3762 11.4829 7.3149 11.3245 7.23317 11.1764C7.20763 11.1202 7.17698 11.0691 7.14123 11.0231C7.10547 10.9721 7.07482 10.9184 7.04928 10.8622C6.9982 10.7601 6.96755 10.6528 6.95733 10.5404C6.94712 10.428 6.91902 10.3157 6.87305 10.2033C6.78621 9.99895 6.72746 9.79462 6.69681 9.59029C6.67127 9.38086 6.63552 9.16887 6.58954 8.95433C6.51292 8.86749 6.4695 8.77043 6.45928 8.66316C6.44907 8.55078 6.43119 8.44351 6.40565 8.34135C6.39543 8.40264 6.37755 8.46394 6.35201 8.52524C6.33158 8.58654 6.30604 8.64528 6.27539 8.70147C6.24474 8.91602 6.20643 9.13311 6.16046 9.35276C6.11448 9.57242 6.04808 9.78441 5.96124 9.98873C5.91526 10.096 5.88717 10.2084 5.87695 10.3259C5.86674 10.4383 5.83864 10.5506 5.79267 10.663C5.76713 10.7192 5.73392 10.7728 5.69306 10.8239C5.6573 10.8699 5.62665 10.921 5.60111 10.9772C5.51427 11.1355 5.44787 11.3015 5.40189 11.4752C5.36103 11.6489 5.30228 11.8175 5.22566 11.9809L5.13371 12.0269C5.05709 12.221 4.98813 12.3768 4.92683 12.4943C4.87064 12.6067 4.80424 12.7037 4.72761 12.7855C4.65099 12.8672 4.55649 12.9387 4.44411 13C4.33173 13.0664 4.18359 13.1456 3.9997 13.2375C3.8771 13.2375 3.76472 13.212 3.66256 13.1609C3.5604 13.1149 3.4659 13.0562 3.37906 12.9847C3.29733 12.9081 3.2207 12.8263 3.14919 12.7395C3.07767 12.6475 3.00616 12.5607 2.93465 12.479C2.92443 12.4177 2.91421 12.3589 2.904 12.3027C2.89378 12.2465 2.88867 12.1852 2.88867 12.1188C2.85802 12.0575 2.81971 11.9733 2.77374 11.866C2.72776 11.7587 2.67924 11.6489 2.62816 11.5365C2.57707 11.4241 2.52599 11.3194 2.47491 11.2224C2.42894 11.1202 2.38296 11.0487 2.33699 11.0078C2.34721 10.8444 2.33188 10.6758 2.29102 10.5021C2.25015 10.3284 2.16587 10.1777 2.03816 10.05C2.03816 10.0194 2.04072 9.99129 2.04582 9.96575C2.05093 9.9402 2.05349 9.90956 2.05349 9.8738C2.05349 9.76653 2.03561 9.6567 1.99985 9.54432C1.9692 9.42683 1.93089 9.3119 1.88492 9.19952C1.83894 9.08203 1.78786 8.9671 1.73167 8.85472C1.68059 8.73723 1.63717 8.6274 1.60141 8.52524C1.48392 8.20343 1.39453 7.88161 1.33323 7.5598C1.27194 7.23287 1.21064 6.90084 1.14934 6.5637C1.12891 6.47686 1.0957 6.40535 1.04973 6.34916C1.00376 6.29297 0.973107 6.22912 0.957782 6.1576C0.927133 5.99925 0.906701 5.846 0.896484 5.69787C0.886268 5.54462 0.873498 5.39648 0.858173 5.25346C0.842849 5.10532 0.817308 4.95974 0.78155 4.81671C0.745793 4.67368 0.684495 4.53065 0.597656 4.38762C0.607873 4.34675 0.615535 4.311 0.620643 4.28035C0.625751 4.24459 0.628305 4.20628 0.628305 4.16541C0.628305 4.07347 0.615535 3.98407 0.589994 3.89724C0.564453 3.80529 0.533804 3.71845 0.498047 3.63672C0.467398 3.54988 0.439303 3.46304 0.413762 3.3762C0.388221 3.28425 0.375451 3.19231 0.375451 3.10036C0.375451 2.92157 0.4061 2.74534 0.467398 2.57166C0.533804 2.39799 0.628305 2.24474 0.750901 2.11193H0.88116C0.942458 2.11193 1.0012 2.10682 1.05739 2.0966C1.11358 2.08639 1.17488 2.08128 1.24129 2.08128C1.29748 2.08128 1.35111 2.08894 1.40219 2.10427C1.45838 2.11448 1.51457 2.13236 1.57076 2.1579L1.61674 2.24985C1.68825 2.29072 1.74444 2.34691 1.78531 2.41842C1.83128 2.48993 1.88492 2.55379 1.94621 2.60998C1.98708 2.69682 2.01007 2.78876 2.01517 2.88582C2.02539 2.98287 2.04327 3.07993 2.06881 3.17698C2.09435 3.25361 2.125 3.32767 2.16076 3.39919C2.20162 3.4656 2.22972 3.54222 2.24504 3.62906C2.27569 3.7159 2.28846 3.80529 2.28335 3.89724C2.28335 3.98918 2.29612 4.08368 2.32166 4.18074C2.34721 4.26247 2.37785 4.33909 2.41361 4.41061C2.45448 4.48212 2.48768 4.55619 2.51322 4.63281C2.52344 4.68389 2.52599 4.73498 2.52088 4.78606C2.52088 4.83714 2.52855 4.88567 2.54387 4.93164C2.55409 4.97251 2.56686 5.01082 2.58218 5.04657C2.60261 5.07722 2.62049 5.10787 2.63582 5.13852C2.65114 5.21514 2.6537 5.29432 2.64348 5.37605C2.63837 5.45267 2.63582 5.5293 2.63582 5.60592C2.63582 5.69787 2.65114 5.8128 2.68179 5.95072C2.71244 6.08864 2.7482 6.23167 2.78906 6.37981C2.83504 6.52284 2.88356 6.66331 2.93465 6.80123C2.99084 6.93404 3.04192 7.03876 3.08789 7.11538V7.23798C3.08278 7.38612 3.09044 7.51382 3.11088 7.62109C3.13131 7.72326 3.15941 7.82031 3.19516 7.91226C3.23092 7.9991 3.26668 8.09105 3.30243 8.1881C3.3433 8.28005 3.38161 8.39243 3.41737 8.52524C3.44291 8.60186 3.46079 8.68359 3.471 8.77043C3.48122 8.85216 3.49144 8.93389 3.50165 9.01563C3.51698 9.09225 3.53741 9.16632 3.56295 9.23783C3.58849 9.30935 3.62936 9.37575 3.68555 9.43705V9.59796C3.68044 9.70523 3.69065 9.80739 3.7162 9.90445C3.74174 10.0015 3.77239 10.0986 3.80814 10.1956C3.8439 10.2876 3.88221 10.3821 3.92308 10.4791C3.96394 10.5711 3.9997 10.663 4.03035 10.755C4.14273 10.6886 4.22957 10.5762 4.29087 10.4178C4.35727 10.2595 4.40835 10.0883 4.44411 9.90445C4.48498 9.71544 4.51562 9.529 4.53606 9.3451C4.55649 9.16121 4.57692 9.00796 4.59736 8.88537C4.63822 8.85472 4.67398 8.81896 4.70463 8.7781C4.73528 8.72701 4.75571 8.64528 4.76593 8.5329C4.78125 8.42052 4.79147 8.30303 4.79657 8.18044C4.80679 8.05273 4.81445 7.92758 4.81956 7.80499C4.82467 7.68239 4.83489 7.58278 4.85021 7.50616C4.86553 7.43975 4.88597 7.3759 4.91151 7.3146C4.94216 7.2482 4.9677 7.18435 4.98813 7.12305C5.01367 7.05664 5.029 6.99279 5.0341 6.93149C5.04432 6.86508 5.03921 6.79612 5.01878 6.72461C5.13627 6.58669 5.22055 6.44111 5.27163 6.28786C5.32272 6.12951 5.35592 5.96605 5.37124 5.79748C5.39168 5.62891 5.39934 5.46034 5.39423 5.29177C5.39423 5.11809 5.40189 4.94697 5.41722 4.7784C5.42743 4.69666 5.4402 4.61749 5.45553 4.54087C5.47596 4.46424 5.49384 4.38507 5.50916 4.30334C5.53981 4.10922 5.5628 3.91767 5.57812 3.72867C5.59345 3.53456 5.62154 3.34044 5.66241 3.14633C5.63687 3.09014 5.61133 3.0314 5.58579 2.9701C5.56535 2.9088 5.55514 2.84751 5.55514 2.78621C5.55514 2.71469 5.56791 2.64829 5.59345 2.58699C5.6241 2.52569 5.66241 2.47206 5.70838 2.42608C5.75436 2.32903 5.79522 2.24474 5.83098 2.17323C5.87184 2.0966 5.91782 2.03275 5.9689 1.98167C6.01998 1.92548 6.08383 1.88462 6.16046 1.85907C6.23708 1.82843 6.33413 1.8131 6.45162 1.8131C6.54868 1.8131 6.63552 1.84375 6.71214 1.90505C6.78876 1.96124 6.87305 1.997 6.96499 2.01232C7.01608 2.11448 7.0646 2.2192 7.11058 2.32647C7.16166 2.42864 7.20252 2.53335 7.23317 2.64063C7.27404 2.67638 7.30724 2.7198 7.33278 2.77088C7.36343 2.81686 7.37876 2.86794 7.37876 2.92413C7.37876 3.02629 7.36088 3.1259 7.32512 3.22296C7.28936 3.32001 7.26382 3.41962 7.2485 3.52178ZM20.3739 11.9043C20.3586 11.9809 20.3382 12.0473 20.3127 12.1035C20.2922 12.1546 20.2718 12.2082 20.2514 12.2644C20.236 12.3155 20.2233 12.3717 20.213 12.433C20.2079 12.4943 20.2105 12.5684 20.2207 12.6552C20.1747 12.6807 20.1415 12.7165 20.1211 12.7625C20.1007 12.8033 20.0828 12.8493 20.0675 12.9004C20.0572 12.9464 20.0445 12.9949 20.0291 13.046C20.0189 13.0971 19.9985 13.1405 19.9678 13.1762C19.8555 13.1405 19.7431 13.1252 19.6307 13.1303C19.5183 13.1354 19.4059 13.1379 19.2936 13.1379C19.1761 13.1379 19.0867 13.1277 19.0254 13.1073C18.9641 13.0919 18.89 13.046 18.8032 12.9694C18.7419 12.9081 18.6806 12.8825 18.6193 12.8927C18.5631 12.9029 18.5095 12.9055 18.4584 12.9004C18.4124 12.8953 18.3741 12.8621 18.3434 12.8008C18.3179 12.7344 18.3051 12.6016 18.3051 12.4023C18.3051 12.3717 18.3026 12.3385 18.2975 12.3027C18.2924 12.267 18.2745 12.2338 18.2438 12.2031C18.111 12.2338 17.9884 12.29 17.8761 12.3717C17.7637 12.4483 17.6564 12.53 17.5542 12.6169C17.4521 12.6986 17.3499 12.7701 17.2477 12.8314C17.1456 12.8927 17.0383 12.9183 16.9259 12.9081C16.8697 12.9642 16.8161 13.0204 16.765 13.0766C16.7139 13.1328 16.6526 13.1813 16.5811 13.2222C16.5454 13.2375 16.4841 13.2554 16.3972 13.2758C16.3155 13.2963 16.2287 13.3142 16.1367 13.3295C16.0448 13.3448 15.9554 13.3576 15.8685 13.3678C15.7817 13.3831 15.7204 13.3908 15.6846 13.3908C15.5774 13.3908 15.4522 13.355 15.3092 13.2835C15.1662 13.2171 15.0231 13.1456 14.8801 13.069C14.7422 12.9923 14.6119 12.9259 14.4893 12.8697C14.3667 12.8084 14.2671 12.788 14.1905 12.8084C14.1343 12.7625 14.0934 12.7063 14.0679 12.6399C14.0424 12.5684 14.0015 12.5045 13.9453 12.4483C13.8789 12.3921 13.8074 12.3462 13.7308 12.3104C13.6541 12.2746 13.5877 12.221 13.5316 12.1495C13.4958 12.0984 13.4677 12.0448 13.4473 11.9886C13.4319 11.9273 13.4141 11.866 13.3936 11.8047C13.3783 11.7383 13.3579 11.6744 13.3323 11.6131C13.3119 11.5518 13.2787 11.4956 13.2327 11.4446C13.2532 11.3577 13.2659 11.2505 13.271 11.1227C13.2761 10.995 13.2838 10.8673 13.294 10.7396C13.3093 10.6068 13.3323 10.4842 13.363 10.3718C13.3987 10.2595 13.4549 10.1777 13.5316 10.1267V10.0654C13.5316 9.907 13.5571 9.7793 13.6082 9.68224C13.6593 9.58008 13.7231 9.49069 13.7997 9.41406C13.8764 9.33233 13.9606 9.25571 14.0526 9.18419C14.1445 9.11268 14.2288 9.02584 14.3054 8.92368C14.3514 8.88792 14.3999 8.87515 14.451 8.88537C14.5021 8.89047 14.5532 8.88026 14.6043 8.85472L14.6502 8.76277C14.6758 8.75255 14.6988 8.75 14.7192 8.75511C14.7396 8.76022 14.7575 8.76277 14.7728 8.76277C14.7984 8.76277 14.8239 8.75255 14.8495 8.73212C14.875 8.71169 14.9005 8.69126 14.9261 8.67082C14.9516 8.64528 14.9772 8.6223 15.0027 8.60186C15.0334 8.58143 15.0666 8.57121 15.1023 8.57121C15.1176 8.57121 15.1355 8.57632 15.1559 8.58654C15.1764 8.59165 15.1943 8.59931 15.2096 8.60953C15.2453 8.55334 15.2862 8.50481 15.3322 8.46394C15.3833 8.41797 15.4343 8.37455 15.4854 8.33368C15.5365 8.29282 15.585 8.25195 15.631 8.21109C15.6821 8.16511 15.7255 8.11403 15.7613 8.05784C15.7817 8.06806 15.8123 8.07317 15.8532 8.07317C15.8992 8.07317 15.9349 8.06295 15.9605 8.04252C15.986 8.01698 16.0116 7.99144 16.0371 7.9659C16.0678 7.93525 16.101 7.90971 16.1367 7.88927C16.1725 7.86373 16.2261 7.85096 16.2976 7.85096C16.313 7.85096 16.3436 7.84075 16.3896 7.82031C16.4355 7.79988 16.4841 7.77689 16.5352 7.75135C16.5862 7.7207 16.6348 7.69261 16.6807 7.66707C16.7267 7.63642 16.7599 7.61343 16.7803 7.59811L16.8646 7.58278C16.9106 7.58278 16.954 7.593 16.9949 7.61343C17.0358 7.62876 17.0792 7.64153 17.1252 7.65174C17.1916 7.58534 17.258 7.52148 17.3244 7.46019C17.3908 7.39889 17.4444 7.32482 17.4853 7.23798C17.5517 7.21755 17.6283 7.17924 17.7151 7.12305C17.802 7.06686 17.8837 7.003 17.9603 6.93149C18.0421 6.85998 18.1085 6.78335 18.1596 6.70162C18.2157 6.61478 18.2438 6.53305 18.2438 6.45643C18.2438 6.3747 18.2209 6.29552 18.1749 6.2189C18.134 6.14228 18.0855 6.06821 18.0293 5.99669C17.9731 5.92007 17.9169 5.84345 17.8607 5.76683C17.8045 5.6902 17.7637 5.61103 17.7381 5.5293H17.7075C17.6462 5.5293 17.59 5.5012 17.5389 5.44501C17.4929 5.38371 17.4393 5.3454 17.378 5.33008C17.3269 5.30965 17.2733 5.29943 17.2171 5.29943C17.1609 5.29943 17.1047 5.29943 17.0485 5.29943C16.9923 5.29943 16.9361 5.29432 16.88 5.2841C16.8289 5.27389 16.7803 5.2509 16.7344 5.21514C16.6322 5.23558 16.5505 5.27389 16.4892 5.33008C16.4279 5.38116 16.3666 5.4348 16.3053 5.49099C16.244 5.54718 16.1725 5.5957 16.0907 5.63657C16.009 5.67233 15.8992 5.6851 15.7613 5.67488C15.6693 5.86388 15.585 6.06055 15.5084 6.26487C15.4369 6.4692 15.3373 6.6582 15.2096 6.83188C15.1789 6.94426 15.1483 7.05664 15.1176 7.16902C15.0921 7.27629 15.041 7.36824 14.9644 7.44486C14.8622 7.47551 14.7575 7.49084 14.6502 7.49084C14.5379 7.49084 14.4127 7.4704 14.2748 7.42954C14.142 7.38356 14.0168 7.32227 13.8993 7.24564C13.7819 7.16902 13.6822 7.07963 13.6005 6.97746C13.5239 6.87019 13.4856 6.75526 13.4856 6.63266C13.4856 6.49985 13.5111 6.36959 13.5622 6.24189C13.6184 6.10907 13.6465 5.97115 13.6465 5.82813C13.718 5.80258 13.7742 5.76172 13.8151 5.70553C13.8559 5.64934 13.8917 5.5906 13.9223 5.5293C13.9581 5.46289 13.9938 5.40159 14.0296 5.3454C14.0705 5.28921 14.1241 5.24579 14.1905 5.21514V5.15385C14.1905 5.10787 14.2033 5.07467 14.2288 5.05424C14.2544 5.0287 14.2595 4.98272 14.2441 4.91632C14.4791 4.7784 14.6656 4.59195 14.8035 4.35697C14.8903 4.31611 14.9823 4.2829 15.0793 4.25736C15.1764 4.23182 15.2683 4.19606 15.3552 4.15009C15.4318 4.11944 15.5033 4.07602 15.5697 4.01983C15.6412 3.96364 15.7204 3.92278 15.8072 3.89724C15.9349 3.87169 16.0601 3.86914 16.1827 3.88957C16.3104 3.9049 16.433 3.91256 16.5505 3.91256C16.6526 3.91256 16.7395 3.89213 16.811 3.85126C16.8876 3.8104 16.977 3.78996 17.0792 3.78996C17.1813 3.78996 17.2835 3.79763 17.3857 3.81295C17.4878 3.82317 17.59 3.83594 17.6922 3.85126C17.7381 3.86148 17.779 3.87936 17.8148 3.9049C17.8556 3.92533 17.899 3.94321 17.945 3.95853C18.1034 3.98918 18.2183 4.00706 18.2898 4.01217C18.3613 4.01217 18.4226 4.02239 18.4737 4.04282C18.5248 4.06325 18.5784 4.10412 18.6346 4.16541C18.6908 4.2216 18.7802 4.32121 18.9028 4.46424H18.9334C18.9998 4.46424 19.0688 4.48978 19.1403 4.54087C19.2118 4.58684 19.2782 4.64558 19.3395 4.7171C19.4059 4.7835 19.4621 4.85502 19.5081 4.93164C19.5541 5.00316 19.5873 5.06701 19.6077 5.1232C19.6384 5.19982 19.6562 5.2841 19.6614 5.37605C19.6665 5.46289 19.6843 5.54462 19.715 5.62124C19.7456 5.69276 19.784 5.75916 19.8299 5.82046C19.8759 5.88176 19.9193 5.94306 19.9602 6.00436C20.0062 6.06566 20.0445 6.12951 20.0751 6.19591C20.1109 6.26232 20.1288 6.33383 20.1288 6.41046C20.1288 6.51262 20.116 6.61223 20.0904 6.70928C20.07 6.80123 20.0598 6.89573 20.0598 6.99279C20.0598 7.07963 20.0777 7.16391 20.1134 7.24564C20.1543 7.32227 20.1747 7.404 20.1747 7.49084C20.1747 7.60322 20.1543 7.71049 20.1134 7.81265C20.0777 7.91481 20.0598 8.02209 20.0598 8.13447C20.0598 8.2826 20.0777 8.43074 20.1134 8.57888C20.1543 8.72701 20.2054 8.8726 20.2667 9.01563C20.236 9.10757 20.2207 9.20718 20.2207 9.31445C20.2207 9.46259 20.236 9.60817 20.2667 9.7512C20.2973 9.88912 20.3127 10.0296 20.3127 10.1726C20.3127 10.2441 20.305 10.3105 20.2897 10.3718C20.2743 10.4331 20.2565 10.4944 20.236 10.5557C20.2156 10.617 20.1977 10.6783 20.1824 10.7396C20.1671 10.8009 20.1594 10.8699 20.1594 10.9465C20.1594 11.11 20.1798 11.2709 20.2207 11.4292C20.2616 11.5876 20.3127 11.7459 20.3739 11.9043ZM18.558 9.4064C18.558 9.30935 18.5503 9.2174 18.535 9.13056C18.5197 9.04372 18.512 8.95177 18.512 8.85472C18.512 8.74745 18.4941 8.66827 18.4584 8.61719C18.4226 8.56611 18.3511 8.54567 18.2438 8.55589H18.1442C18.0727 8.6223 18.0063 8.69381 17.945 8.77043C17.8888 8.84706 17.8199 8.91346 17.7381 8.96965C17.6666 9.01563 17.5874 9.04883 17.5006 9.06926C17.4138 9.08969 17.3422 9.13822 17.2861 9.21484H17.2554C17.1839 9.21484 17.1226 9.22761 17.0715 9.25316C17.0204 9.27359 16.9694 9.29657 16.9183 9.32212C16.8672 9.34255 16.811 9.36043 16.7497 9.37575C16.6935 9.39108 16.622 9.39108 16.5352 9.37575C16.4534 9.50346 16.3742 9.63627 16.2976 9.77419C16.221 9.907 16.1112 10.0092 15.9681 10.0807L15.8379 10.0654C15.7459 10.0602 15.6514 10.0705 15.5544 10.096C15.4624 10.1215 15.3782 10.1599 15.3015 10.2109C15.23 10.262 15.1713 10.3259 15.1253 10.4025C15.0793 10.4791 15.0563 10.5711 15.0563 10.6783C15.0563 10.8163 15.0768 10.921 15.1176 10.9925C15.1585 11.0589 15.2096 11.1151 15.2709 11.1611C15.3322 11.2019 15.3986 11.2402 15.4701 11.276C15.5416 11.3117 15.608 11.3679 15.6693 11.4446C15.7255 11.4548 15.7843 11.4573 15.8456 11.4522C15.9069 11.4471 15.9681 11.4446 16.0294 11.4446C16.0703 11.4446 16.1112 11.4471 16.152 11.4522C16.198 11.4522 16.2363 11.465 16.267 11.4905C16.3283 11.4343 16.3794 11.3935 16.4202 11.3679C16.4611 11.3373 16.53 11.3271 16.6271 11.3373C16.7446 11.1892 16.8902 11.0742 17.0639 10.9925C17.2375 10.9108 17.4112 10.8418 17.5849 10.7856C17.5951 10.7294 17.6181 10.6809 17.6538 10.64C17.6947 10.5992 17.7381 10.5634 17.7841 10.5328C17.8301 10.497 17.8761 10.4663 17.922 10.4408C17.968 10.4102 18.0063 10.3744 18.037 10.3335C18.0676 10.3029 18.111 10.2441 18.1672 10.1573C18.2285 10.0705 18.2873 9.97852 18.3434 9.88146C18.4047 9.7793 18.4558 9.6848 18.4967 9.59796C18.5376 9.51112 18.558 9.44727 18.558 9.4064ZM28.1511 4.90099C28.1511 5.01337 28.1179 5.11298 28.0515 5.19982C27.9902 5.28155 27.9392 5.37094 27.8983 5.468C27.8063 5.48332 27.7246 5.51142 27.6531 5.55228C27.5867 5.58804 27.5177 5.62891 27.4462 5.67488C27.3798 5.71575 27.3057 5.7515 27.224 5.78215C27.1423 5.8128 27.0478 5.82813 26.9405 5.82813C26.8383 5.82813 26.7387 5.81791 26.6417 5.79748C26.5497 5.77704 26.4552 5.76683 26.3582 5.76683C26.2305 5.76683 26.1079 5.79237 25.9904 5.84345C25.878 5.89453 25.7554 5.92007 25.6226 5.92007C25.4949 5.92007 25.3646 5.9073 25.2318 5.88176C25.1041 5.85622 24.979 5.84345 24.8564 5.84345C24.8155 5.84345 24.7772 5.846 24.7414 5.85111C24.7108 5.85622 24.6801 5.85877 24.6495 5.85877C24.6035 5.95583 24.5831 6.05544 24.5882 6.1576C24.5984 6.25977 24.6035 6.35938 24.6035 6.45643C24.6035 6.63011 24.5856 6.80379 24.5499 6.97746C24.5192 7.15114 24.5039 7.32737 24.5039 7.50616C24.5039 7.64919 24.5192 7.78966 24.5499 7.92758C24.5856 8.0604 24.6035 8.19832 24.6035 8.34135C24.6035 8.41797 24.5933 8.48948 24.5729 8.55589C24.5524 8.61719 24.5269 8.67849 24.4962 8.73978C24.4707 8.80108 24.4477 8.86238 24.4273 8.92368C24.4069 8.98498 24.3966 9.05138 24.3966 9.1229C24.3966 9.16887 24.4043 9.2174 24.4196 9.26848C24.4349 9.31445 24.4426 9.36043 24.4426 9.4064L24.3966 9.45237C24.3966 9.47281 24.4017 9.49069 24.412 9.50601C24.4222 9.51623 24.4349 9.53155 24.4503 9.55198C24.4656 9.56731 24.4784 9.58774 24.4886 9.61328C24.4988 9.63882 24.5039 9.67458 24.5039 9.72055C24.5039 9.85337 24.4937 9.98618 24.4733 10.119C24.4528 10.2518 24.4426 10.3846 24.4426 10.5174C24.4426 10.543 24.4477 10.5992 24.4579 10.686C24.4681 10.7677 24.4809 10.8648 24.4962 10.9772C24.5167 11.0895 24.5346 11.207 24.5499 11.3296C24.5703 11.4522 24.5907 11.5672 24.6112 11.6744C24.6316 11.7817 24.6495 11.8736 24.6648 11.9503C24.6852 12.0269 24.7006 12.0729 24.7108 12.0882C24.7517 12.1444 24.8002 12.1904 24.8564 12.2261C24.9126 12.2568 24.9636 12.2951 25.0096 12.341C25.03 12.3513 25.0607 12.3564 25.1016 12.3564C25.1578 12.3564 25.2088 12.3487 25.2548 12.3334C25.3059 12.3181 25.3595 12.3053 25.4157 12.2951C25.4719 12.2797 25.5281 12.2721 25.5843 12.2721C25.6456 12.2721 25.7043 12.2644 25.7605 12.2491C25.8218 12.2236 25.8755 12.1904 25.9214 12.1495C25.9674 12.1086 26.0108 12.0703 26.0517 12.0346C26.0977 11.9937 26.1462 11.9605 26.1973 11.9349C26.2483 11.9043 26.3071 11.889 26.3735 11.889C26.4603 11.7306 26.5548 11.5799 26.657 11.4369C26.7643 11.2939 26.8537 11.1406 26.9252 10.9772C26.9456 10.9874 26.966 10.9925 26.9865 10.9925C27.0273 10.9925 27.0605 10.9823 27.0861 10.9618C27.1167 10.9414 27.1525 10.9312 27.1934 10.9312C27.1985 10.9312 27.224 10.9389 27.27 10.9542C27.316 10.9644 27.3645 10.9797 27.4156 11.0002C27.4666 11.0155 27.5152 11.0334 27.5611 11.0538C27.6071 11.0691 27.6352 11.0793 27.6454 11.0844C27.6761 11.11 27.6991 11.1559 27.7144 11.2224C27.7348 11.2888 27.7578 11.3424 27.7834 11.3833C27.8089 11.4241 27.8319 11.4548 27.8523 11.4752C27.8727 11.4956 27.8881 11.5186 27.8983 11.5442C27.9136 11.5646 27.9238 11.5901 27.9289 11.6208C27.9392 11.6514 27.9443 11.6974 27.9443 11.7587C27.9443 11.9171 27.9111 12.0678 27.8447 12.2108C27.7834 12.3487 27.7323 12.4917 27.6914 12.6399C27.625 12.6654 27.5714 12.7037 27.5305 12.7548C27.4896 12.8008 27.4488 12.8493 27.4079 12.9004C27.3721 12.9515 27.3287 12.9974 27.2776 13.0383C27.2317 13.0792 27.1653 13.1022 27.0784 13.1073C27.0376 13.2248 26.9712 13.3244 26.8792 13.4061C26.7873 13.4878 26.6877 13.5568 26.5804 13.613C26.5497 13.6436 26.5063 13.659 26.4501 13.659C26.4195 13.659 26.3837 13.6513 26.3428 13.636C26.3071 13.6206 26.2816 13.5977 26.2662 13.567C26.1998 13.5925 26.1513 13.6181 26.1206 13.6436C26.0951 13.6743 26.0721 13.7049 26.0517 13.7356C26.0312 13.7713 26.0083 13.8045 25.9827 13.8352C25.9623 13.8658 25.9265 13.8939 25.8755 13.9195C25.8295 13.945 25.7605 13.9654 25.6686 13.9808C25.5817 13.9961 25.4617 14.0038 25.3084 14.0038C25.2369 14.0038 25.1654 14.0063 25.0939 14.0114C25.0275 14.0216 24.9636 14.0395 24.9023 14.0651C24.7849 13.9833 24.6393 13.9322 24.4656 13.9118C24.2919 13.8965 24.1336 13.8812 23.9905 13.8658C24.0008 13.8148 23.9854 13.7892 23.9446 13.7892C23.9037 13.7892 23.8705 13.7764 23.845 13.7509C23.7888 13.7203 23.7428 13.6743 23.707 13.613C23.6713 13.5568 23.6125 13.521 23.5308 13.5057C23.5257 13.4444 23.5053 13.3857 23.4695 13.3295C23.4337 13.2784 23.3929 13.2273 23.3469 13.1762C23.306 13.1252 23.2652 13.0715 23.2243 13.0153C23.1834 12.9642 23.1553 12.9081 23.14 12.8468C23.0941 12.6986 23.0379 12.5505 22.9715 12.4023C22.9102 12.2491 22.8616 12.0933 22.8259 11.9349C22.8105 11.8634 22.7952 11.7715 22.7799 11.6591C22.7697 11.5416 22.7595 11.419 22.7492 11.2913C22.7441 11.1636 22.739 11.041 22.7339 10.9235C22.7339 10.806 22.7339 10.709 22.7339 10.6324C22.7339 10.5047 22.7492 10.3846 22.7799 10.2722C22.8105 10.1547 22.8259 10.0347 22.8259 9.91211C22.8259 9.74865 22.8131 9.58774 22.7876 9.42939C22.762 9.27103 22.7441 9.11268 22.7339 8.95433C22.7237 8.86749 22.7237 8.78065 22.7339 8.69381C22.7441 8.60697 22.7492 8.52013 22.7492 8.43329C22.7492 8.30048 22.7288 8.18555 22.688 8.08849C22.7186 8.06806 22.7441 8.03741 22.7646 7.99654C22.7901 7.95568 22.8105 7.91226 22.8259 7.86629C22.8412 7.8152 22.8514 7.76412 22.8565 7.71304C22.8667 7.66196 22.8718 7.61854 22.8718 7.58278L22.8259 7.53681C22.8361 7.46019 22.8437 7.38356 22.8489 7.30694C22.854 7.22521 22.8565 7.14603 22.8565 7.06941C22.8565 6.98768 22.8463 6.91106 22.8259 6.83954C22.8105 6.76292 22.7799 6.69396 22.7339 6.63266C22.7237 6.55093 22.7314 6.47431 22.7569 6.40279C22.7825 6.33128 22.7952 6.25977 22.7952 6.18825L22.7799 6.06566C22.6624 6.05033 22.5398 6.04778 22.4121 6.05799C22.2844 6.0631 22.1618 6.06566 22.0443 6.06566C21.9626 6.06566 21.8809 6.06566 21.7991 6.06566C21.7174 6.06055 21.6408 6.04522 21.5693 6.01968C21.4926 5.9073 21.4135 5.79748 21.3317 5.6902C21.25 5.57782 21.2091 5.45012 21.2091 5.30709C21.2091 5.14363 21.25 5.0006 21.3317 4.878C21.4135 4.75541 21.4926 4.6277 21.5693 4.49489C21.6306 4.48978 21.6919 4.47446 21.7532 4.44892C21.8145 4.42338 21.8732 4.39528 21.9294 4.36463C21.9907 4.33398 22.0494 4.30589 22.1056 4.28035C22.1618 4.25481 22.2206 4.24204 22.2819 4.24204C22.3891 4.24204 22.4913 4.27013 22.5883 4.32632C22.6854 4.3774 22.7927 4.40294 22.9102 4.40294H22.9868C23.0123 4.34675 23.0353 4.28801 23.0557 4.22671C23.0813 4.16541 23.0889 4.10412 23.0787 4.04282C23.0532 4.02239 23.0302 4.00195 23.0098 3.98152C22.9944 3.95598 22.9868 3.92788 22.9868 3.89724C22.9868 3.87169 22.9944 3.85126 23.0098 3.83594C23.0251 3.8155 23.0328 3.78486 23.0328 3.74399C23.0328 3.6265 23.0174 3.50901 22.9868 3.39153C22.9561 3.26893 22.9408 3.14378 22.9408 3.01608C22.9408 2.91391 22.9561 2.78876 22.9868 2.64063C23.0225 2.49249 23.066 2.34435 23.117 2.19621C23.1732 2.04297 23.2371 1.89994 23.3086 1.76713C23.3801 1.63432 23.4542 1.53471 23.5308 1.4683C23.5972 1.45808 23.6611 1.45297 23.7224 1.45297C23.7837 1.45297 23.8475 1.45297 23.9139 1.45297C24.0672 1.45297 24.1974 1.48618 24.3047 1.55258C24.412 1.61899 24.4988 1.70583 24.5652 1.8131C24.6316 1.92037 24.6801 2.04297 24.7108 2.18089C24.7414 2.3137 24.7568 2.44651 24.7568 2.57933C24.7568 2.66617 24.7338 2.77344 24.6878 2.90114C24.6418 3.02885 24.6188 3.16677 24.6188 3.3149C24.6188 3.43239 24.6239 3.55499 24.6342 3.68269C24.6444 3.80529 24.6495 3.92533 24.6495 4.04282C24.675 4.04282 24.7006 4.04026 24.7261 4.03516C24.7517 4.03005 24.7772 4.02749 24.8027 4.02749C24.9049 4.02749 25.002 4.04537 25.0939 4.08113C25.1858 4.11689 25.2829 4.13477 25.3851 4.13477C25.4566 4.13477 25.5153 4.11944 25.5613 4.08879C25.6022 4.08879 25.6354 4.09901 25.6609 4.11944C25.6864 4.13477 25.7069 4.1552 25.7222 4.18074C25.7426 4.20117 25.7631 4.22416 25.7835 4.2497C25.809 4.27013 25.8397 4.2829 25.8755 4.28801C25.9521 4.25736 26.0236 4.2165 26.09 4.16541C26.1615 4.11433 26.2407 4.07347 26.3275 4.04282H27.6454C27.6863 4.07347 27.7221 4.10667 27.7527 4.14243C27.7834 4.17819 27.8319 4.19606 27.8983 4.19606C27.9034 4.25736 27.9187 4.31611 27.9443 4.3723C27.9749 4.42849 28.0056 4.48468 28.0362 4.54087C28.0669 4.59706 28.0924 4.6558 28.1128 4.7171C28.1384 4.77329 28.1511 4.83459 28.1511 4.90099ZM35.7138 10.9772V11.0385C35.7189 11.1815 35.6959 11.299 35.6448 11.3909C35.5989 11.4829 35.5376 11.562 35.4609 11.6285C35.3843 11.6949 35.2975 11.7562 35.2004 11.8123C35.1034 11.8685 35.0063 11.9298 34.9093 11.9962V12.0575C34.9093 12.1444 34.8939 12.2287 34.8633 12.3104C34.8377 12.387 34.8173 12.4662 34.802 12.5479H34.7713C34.6947 12.5377 34.6258 12.5505 34.5645 12.5862C34.5083 12.622 34.4521 12.6399 34.3959 12.6399C34.3499 12.6399 34.3014 12.6245 34.2503 12.5939C34.1992 12.6041 34.166 12.622 34.1507 12.6475C34.1354 12.6731 34.12 12.7012 34.1047 12.7318C34.0894 12.7625 34.0664 12.7906 34.0358 12.8161C34.0051 12.8365 33.9515 12.8468 33.8748 12.8468C33.8493 12.8468 33.8187 12.8621 33.7829 12.8927C33.7523 12.9183 33.7165 12.9489 33.6756 12.9847C33.6399 13.0204 33.6041 13.0536 33.5684 13.0843C33.5326 13.12 33.5045 13.143 33.4841 13.1532C33.4585 13.1686 33.4253 13.1762 33.3845 13.1762C33.3436 13.1813 33.2976 13.1839 33.2465 13.1839C33.2006 13.189 33.1546 13.1916 33.1086 13.1916C33.0626 13.1967 33.0218 13.2018 32.986 13.2069C32.9452 13.2171 32.9069 13.2375 32.8711 13.2682C32.8404 13.2988 32.8098 13.3142 32.7791 13.3142C32.7383 13.3142 32.7 13.3039 32.6642 13.2835C32.6336 13.2631 32.5978 13.2529 32.5569 13.2529C32.5212 13.2529 32.4778 13.2631 32.4267 13.2835C32.3756 13.3039 32.3194 13.3269 32.2581 13.3525C32.1968 13.378 32.1304 13.401 32.0589 13.4214C31.9874 13.4419 31.9133 13.4521 31.8367 13.4521C31.7345 13.4521 31.6451 13.4367 31.5685 13.4061C31.5634 13.4061 31.5328 13.3882 31.4766 13.3525C31.4255 13.3218 31.3591 13.2809 31.2773 13.2299C31.2007 13.1788 31.1164 13.1226 31.0245 13.0613C30.9325 13.0051 30.8457 12.9515 30.764 12.9004C30.6822 12.8442 30.6133 12.7982 30.5571 12.7625C30.5009 12.7267 30.4677 12.7063 30.4575 12.7012L30.4115 12.5939C30.34 12.5633 30.2761 12.5249 30.22 12.479C30.1689 12.433 30.128 12.3717 30.0974 12.2951C30.0463 12.2644 30.0029 12.2261 29.9671 12.1801C29.9313 12.1291 29.8956 12.078 29.8598 12.0269C29.8241 11.9758 29.7858 11.9298 29.7449 11.889C29.704 11.843 29.6529 11.8098 29.5916 11.7894C29.5457 11.6872 29.5023 11.585 29.4614 11.4829C29.4205 11.3807 29.3797 11.2785 29.3388 11.1764L29.2315 11.0844C29.2213 11.0538 29.2213 11.0257 29.2315 11.0002C29.2417 10.9695 29.2468 10.9414 29.2468 10.9159C29.2468 10.8954 29.229 10.852 29.1932 10.7856C29.1626 10.7192 29.1268 10.6477 29.0859 10.5711C29.0502 10.4893 29.0144 10.4102 28.9787 10.3335C28.948 10.2569 28.9327 10.1982 28.9327 10.1573C28.9327 10.0807 28.9404 10.0066 28.9557 9.9351C28.971 9.86358 28.9787 9.79207 28.9787 9.72055C28.9787 9.65925 28.9659 9.60051 28.9404 9.54432C28.9148 9.48302 28.8969 9.42172 28.8867 9.36043C28.8714 9.2787 28.8663 9.19441 28.8714 9.10757C28.8816 9.02073 28.8867 8.93645 28.8867 8.85472C28.8867 8.79342 28.8765 8.73212 28.8561 8.67082C28.8356 8.60953 28.8254 8.54567 28.8254 8.47927C28.8254 8.41797 28.8433 8.36178 28.8791 8.3107C28.9148 8.25962 28.9327 8.20598 28.9327 8.14979C28.9327 7.98633 28.9097 7.82542 28.8637 7.66707C28.8178 7.50361 28.7948 7.34014 28.7948 7.17668C28.7948 7.04898 28.828 6.91106 28.8944 6.76292C28.9608 6.61478 29.0425 6.5024 29.1396 6.42578V6.06566C29.1855 6.05544 29.2187 6.03245 29.2392 5.99669C29.2647 5.96094 29.2852 5.92007 29.3005 5.8741C29.3158 5.82813 29.3286 5.78215 29.3388 5.73618C29.3541 5.6851 29.372 5.64168 29.3924 5.60592C29.418 5.55995 29.4435 5.52163 29.4691 5.49099C29.4946 5.45523 29.5176 5.42203 29.538 5.39138C29.5584 5.35562 29.5738 5.31731 29.584 5.27644C29.5942 5.23047 29.5968 5.17428 29.5916 5.10787C29.6785 5.07722 29.7577 5.0338 29.8292 4.97761C29.9007 4.92142 29.9697 4.86268 30.0361 4.80138C30.1076 4.74008 30.1791 4.68134 30.2506 4.62515C30.3272 4.56896 30.4115 4.52554 30.5035 4.49489C30.5699 4.40805 30.6797 4.32377 30.8329 4.24204C30.9862 4.1552 31.142 4.07602 31.3003 4.00451C31.4587 3.93299 31.5992 3.87169 31.7218 3.82061C31.8444 3.76442 31.9082 3.72356 31.9133 3.69802C32.0563 3.71334 32.2045 3.721 32.3577 3.721C32.511 3.721 32.6642 3.72356 32.8175 3.72867C32.9707 3.73377 33.1214 3.7491 33.2695 3.77464C33.4177 3.79507 33.5581 3.83594 33.691 3.89724C33.7063 3.92788 33.7242 3.95598 33.7446 3.98152C33.7701 4.00706 33.7931 4.0326 33.8136 4.05814C33.834 4.07858 33.8519 4.10412 33.8672 4.13477C33.8825 4.16541 33.8902 4.20117 33.8902 4.24204C34.0741 4.31355 34.235 4.43359 34.3729 4.60216C34.5159 4.76563 34.6334 4.95207 34.7254 5.16151C34.8224 5.36584 34.8939 5.58038 34.9399 5.80514C34.9859 6.02479 35.0089 6.22656 35.0089 6.41046C35.0089 6.46665 34.9961 6.51262 34.9706 6.54838C34.9501 6.58413 34.9297 6.62755 34.9093 6.67864C34.8837 6.72461 34.8735 6.77569 34.8786 6.83188C34.8837 6.88807 34.8735 6.9366 34.848 6.97746C34.8224 7.05409 34.7841 7.12305 34.733 7.18435C34.6819 7.24564 34.636 7.31205 34.5951 7.38356C34.5032 7.59811 34.4061 7.80754 34.3039 8.01187C34.2018 8.2162 34.0792 8.41541 33.9361 8.60953C33.88 8.68104 33.8136 8.75 33.7369 8.81641C33.6603 8.88281 33.6118 8.96454 33.5913 9.0616C33.4994 9.0616 33.4279 9.08459 33.3768 9.13056C33.3257 9.17142 33.2797 9.2174 33.2389 9.26848C33.198 9.31445 33.152 9.35787 33.101 9.39874C33.0499 9.4396 32.9784 9.45748 32.8864 9.45237C32.8456 9.52389 32.8021 9.58774 32.7562 9.64393C32.7153 9.69501 32.6693 9.7512 32.6182 9.8125C32.5672 9.8125 32.5237 9.82527 32.488 9.85081C32.4573 9.87124 32.4241 9.89678 32.3884 9.92743C32.3526 9.95297 32.3143 9.97596 32.2734 9.99639C32.2326 10.0168 32.1815 10.0245 32.1202 10.0194C32.0742 10.0858 32.0206 10.1445 31.9593 10.1956C31.898 10.2416 31.8341 10.2876 31.7677 10.3335C31.7064 10.3795 31.6477 10.4306 31.5915 10.4868C31.5353 10.5379 31.4919 10.6017 31.4612 10.6783C31.405 10.6937 31.3386 10.709 31.262 10.7243C31.1905 10.7345 31.142 10.7703 31.1164 10.8316C31.1164 10.9286 31.1369 11.0206 31.1777 11.1074C31.2186 11.1892 31.2978 11.23 31.4153 11.23C31.4561 11.3066 31.5098 11.373 31.5762 11.4292C31.6426 11.4803 31.709 11.534 31.7754 11.5901C31.9031 11.5799 32.0308 11.5799 32.1585 11.5901C32.2862 11.6004 32.4139 11.6055 32.5416 11.6055C32.6949 11.6055 32.8149 11.5927 32.9017 11.5672C32.9886 11.5416 33.0575 11.5135 33.1086 11.4829C33.1648 11.4471 33.2108 11.4165 33.2465 11.3909C33.2874 11.3603 33.3359 11.3424 33.3921 11.3373C33.4636 11.2096 33.5377 11.087 33.6143 10.9695C33.691 10.852 33.7982 10.7703 33.9361 10.7243C33.977 10.6477 34.023 10.5711 34.0741 10.4944C34.1251 10.4127 34.1711 10.331 34.212 10.2492C34.258 10.1624 34.2886 10.0756 34.3039 9.98873C34.3244 9.90189 34.3244 9.8125 34.3039 9.72055C34.3499 9.65925 34.401 9.58263 34.4572 9.49069C34.5185 9.39363 34.5849 9.30168 34.6564 9.21484C34.7279 9.128 34.802 9.05394 34.8786 8.99264C34.9603 8.93134 35.0446 8.90069 35.1315 8.90069C35.2132 8.90069 35.2847 8.92879 35.346 8.98498C35.4073 9.03606 35.4609 9.09225 35.5069 9.15355C35.6091 9.16887 35.6934 9.20718 35.7598 9.26848C35.8313 9.32467 35.8849 9.39363 35.9207 9.47536C35.9615 9.55198 35.9896 9.63882 36.005 9.73588C36.0203 9.82782 36.0279 9.91722 36.0279 10.0041C36.0279 10.1624 36.0024 10.3361 35.9513 10.5251C35.9053 10.7141 35.8262 10.8648 35.7138 10.9772ZM33.1852 5.76683C33.1597 5.77194 33.1418 5.76938 33.1316 5.75916C33.1265 5.74384 33.1214 5.72852 33.1163 5.71319C33.1112 5.69276 33.1061 5.67488 33.101 5.65956C33.0959 5.63912 33.0882 5.62124 33.078 5.60592C33.0524 5.57527 32.9988 5.53951 32.9171 5.49865C32.8404 5.45778 32.7536 5.42203 32.6566 5.39138C32.5646 5.35562 32.4701 5.32497 32.373 5.29943C32.2811 5.27389 32.2121 5.26112 32.1662 5.26112C32.064 5.26112 31.9797 5.279 31.9133 5.31475C31.852 5.35051 31.7958 5.38882 31.7447 5.42969C31.6937 5.47055 31.6426 5.50886 31.5915 5.54462C31.5455 5.58038 31.4868 5.60081 31.4153 5.60592C31.4153 5.65189 31.4025 5.69531 31.377 5.73618C31.3565 5.77704 31.3284 5.81535 31.2927 5.85111C31.262 5.88687 31.2288 5.92263 31.1931 5.95838C31.1624 5.99414 31.1369 6.0299 31.1164 6.06566C31.0756 6.14228 31.0475 6.22656 31.0322 6.31851C31.0168 6.40535 30.9913 6.49219 30.9555 6.57903C30.9147 6.67608 30.8712 6.76803 30.8253 6.85487C30.7793 6.9366 30.741 7.02855 30.7103 7.13071L30.5954 7.23798C30.5699 7.33504 30.5545 7.4372 30.5494 7.54447C30.5494 7.64663 30.5494 7.7488 30.5494 7.85096C30.5494 7.98377 30.5648 8.11148 30.5954 8.23407C30.6261 8.35156 30.6465 8.47671 30.6567 8.60953C30.6567 8.6555 30.6516 8.70658 30.6414 8.76277C30.6312 8.81385 30.6261 8.86749 30.6261 8.92368C30.6261 8.94922 30.6261 8.97221 30.6261 8.99264C30.6312 9.01307 30.6414 9.03606 30.6567 9.0616H30.695C30.7512 9.06671 30.7997 9.05904 30.8406 9.03861C30.8815 9.01818 30.9198 8.99264 30.9555 8.96199C30.9913 8.93134 31.0245 8.89814 31.0551 8.86238C31.0858 8.82151 31.1215 8.7832 31.1624 8.74745C31.1931 8.72191 31.2263 8.70658 31.262 8.70147C31.2978 8.69636 31.3335 8.68104 31.3693 8.6555C31.3948 8.62996 31.4102 8.60442 31.4153 8.57888C31.4204 8.54823 31.4357 8.52013 31.4612 8.49459C31.5072 8.45373 31.5634 8.41797 31.6298 8.38732C31.7013 8.35667 31.7652 8.32602 31.8214 8.29537C31.8827 8.26472 31.9337 8.22641 31.9746 8.18044C32.0206 8.13447 32.064 8.08849 32.1049 8.04252C32.1508 7.99654 32.1994 7.95568 32.2505 7.91992C32.3015 7.87906 32.3628 7.85096 32.4343 7.83564C32.465 7.79988 32.5033 7.74369 32.5493 7.66707C32.5953 7.58534 32.6412 7.4985 32.6872 7.40655C32.7332 7.3146 32.774 7.22521 32.8098 7.13837C32.8507 7.04642 32.8762 6.97491 32.8864 6.92383H32.9171C32.9681 6.92383 33.0065 6.9085 33.032 6.87785C33.0626 6.8421 33.0984 6.81145 33.1393 6.78591C33.1648 6.72972 33.1801 6.67353 33.1852 6.61734C33.1955 6.55604 33.2006 6.4973 33.2006 6.44111C33.2006 6.32362 33.1904 6.21124 33.1699 6.10397C33.1546 5.99669 33.1597 5.88432 33.1852 5.76683ZM43.2764 6.17293C43.2764 6.26998 43.2586 6.36448 43.2228 6.45643C43.1922 6.54838 43.1768 6.64288 43.1768 6.73993C43.1666 6.81656 43.1641 6.89573 43.1692 6.97746C43.1743 7.05409 43.1768 7.13071 43.1768 7.20733C43.1768 7.26863 43.1666 7.33759 43.1462 7.41421C43.1257 7.49084 43.1028 7.56746 43.0772 7.64408C43.0568 7.7156 43.0389 7.78456 43.0236 7.85096C43.0134 7.91226 43.0134 7.9659 43.0236 8.01187C42.9521 8.06806 42.8959 8.12425 42.855 8.18044C42.8193 8.23152 42.8065 8.30559 42.8167 8.40264C42.7554 8.42819 42.7069 8.45628 42.6711 8.48693C42.6405 8.51247 42.5894 8.52013 42.5179 8.50992C42.477 8.60186 42.4259 8.68359 42.3646 8.75511C42.3033 8.82662 42.2344 8.89303 42.1577 8.95433C42.0862 9.01563 42.0096 9.07692 41.9279 9.13822C41.8513 9.19441 41.7772 9.25316 41.7057 9.31445C41.5933 9.28891 41.4835 9.27614 41.3762 9.27614C41.2689 9.27614 41.1591 9.25571 41.0467 9.21484C40.9292 9.05649 40.8424 8.8726 40.7862 8.66316C40.7351 8.44862 40.6866 8.24685 40.6406 8.05784C40.6559 8.01698 40.6968 7.95313 40.7632 7.86629C40.8296 7.77434 40.9037 7.67984 40.9854 7.58278C41.0723 7.48573 41.154 7.39889 41.2306 7.32227C41.3072 7.24564 41.366 7.20222 41.4068 7.19201C41.4324 7.07452 41.4656 6.95959 41.5065 6.84721C41.5473 6.73483 41.5678 6.61478 41.5678 6.48708C41.5678 6.33894 41.5141 6.2189 41.4068 6.12695C41.2894 6.15249 41.1974 6.20613 41.131 6.28786C41.0646 6.36448 40.988 6.43089 40.9011 6.48708C40.8143 6.48708 40.7377 6.4973 40.6713 6.51773C40.6049 6.53816 40.5308 6.54327 40.4491 6.53305C40.398 6.54327 40.3597 6.56626 40.3341 6.60201C40.3086 6.63266 40.2831 6.66587 40.2575 6.70162C40.232 6.73738 40.1988 6.77314 40.1579 6.80889C40.117 6.84465 40.0583 6.87275 39.9817 6.89318C39.9766 6.9034 39.9663 6.92127 39.951 6.94681C39.9408 6.97236 39.9255 7.00045 39.905 7.0311C39.8897 7.06175 39.8744 7.0924 39.8591 7.12305C39.8489 7.1537 39.8412 7.17668 39.8361 7.19201H39.7288C39.6879 7.2482 39.6547 7.30694 39.6292 7.36824C39.6088 7.42954 39.573 7.49084 39.5219 7.55213C39.476 7.61854 39.4223 7.69261 39.361 7.77434C39.2997 7.85096 39.2384 7.93269 39.1771 8.01953C39.1209 8.10637 39.0724 8.19576 39.0315 8.28771C38.9958 8.37455 38.9779 8.46394 38.9779 8.55589C38.9779 8.61208 38.9856 8.66572 39.0009 8.7168C39.0162 8.76277 39.0239 8.80874 39.0239 8.85472C39.0239 8.9671 39.006 9.07948 38.9703 9.19186C38.9396 9.29913 38.9243 9.4064 38.9243 9.51367C38.9243 9.58519 38.9319 9.6567 38.9473 9.72822C38.9677 9.79973 38.9779 9.87124 38.9779 9.94276C38.9779 10.05 38.9575 10.1547 38.9166 10.2569C38.8809 10.3591 38.863 10.4689 38.863 10.5864C38.863 10.7192 38.8706 10.852 38.886 10.9848C38.9064 11.1125 38.9268 11.2428 38.9473 11.3756C38.9728 11.5084 38.9932 11.6438 39.0086 11.7817C39.029 11.9145 39.0392 12.0499 39.0392 12.1878C39.0392 12.3615 39.0111 12.5173 38.9549 12.6552C38.9038 12.7931 38.8579 12.9438 38.817 13.1073C38.7148 13.1788 38.5922 13.2503 38.4492 13.3218C38.3113 13.3984 38.1785 13.4367 38.0508 13.4367C37.9486 13.4367 37.8694 13.4061 37.8132 13.3448C37.7571 13.2835 37.7213 13.2043 37.706 13.1073C37.5783 13.0613 37.4633 12.9949 37.3612 12.9081C37.3561 12.8416 37.3356 12.7803 37.2999 12.7242C37.2692 12.668 37.2335 12.6118 37.1926 12.5556C37.1568 12.4994 37.1236 12.4407 37.093 12.3794C37.0623 12.313 37.047 12.2363 37.047 12.1495C37.047 12.0575 37.0598 11.9656 37.0853 11.8736C37.1109 11.7766 37.1236 11.677 37.1236 11.5748C37.1236 11.5391 37.1211 11.5084 37.116 11.4829C37.1109 11.4522 37.1083 11.4241 37.1083 11.3986C37.1083 11.3628 37.116 11.3322 37.1313 11.3066C37.1466 11.2811 37.162 11.2581 37.1773 11.2377C37.1926 11.2121 37.2079 11.1866 37.2233 11.1611C37.2386 11.1355 37.2462 11.0998 37.2462 11.0538C37.2462 11.0231 37.2386 10.9976 37.2233 10.9772C37.2079 10.9516 37.1901 10.9286 37.1696 10.9082C37.1492 10.8827 37.1313 10.8571 37.116 10.8316C37.1007 10.8009 37.093 10.7652 37.093 10.7243C37.093 10.52 37.1058 10.3208 37.1313 10.1267C37.1568 9.92743 37.1696 9.72311 37.1696 9.51367C37.1696 9.39108 37.1594 9.26848 37.139 9.14588C37.1236 9.02329 37.0777 8.91091 37.001 8.80874C37.0317 8.76788 37.0521 8.72446 37.0623 8.67849C37.0726 8.6274 37.0777 8.57632 37.0777 8.52524C37.0777 8.40264 37.0649 8.28005 37.0394 8.15745C37.0138 8.02975 37.001 7.90204 37.001 7.77434C37.001 7.65685 37.0189 7.54703 37.0547 7.44486C37.0904 7.3427 37.1083 7.20222 37.1083 7.02344C37.1083 6.97236 37.116 6.92383 37.1313 6.87785C37.1466 6.83188 37.1543 6.78591 37.1543 6.73993C37.1543 6.7195 37.1441 6.67864 37.1236 6.61734C37.1032 6.55604 37.0777 6.48197 37.047 6.39513C37.0215 6.30829 36.9985 6.21379 36.9781 6.11163C36.9576 6.00436 36.9474 5.89453 36.9474 5.78215C36.9474 5.66977 36.9627 5.55228 36.9934 5.42969C37.0291 5.30198 37.047 5.14618 37.047 4.96229C37.047 4.83459 37.0828 4.72476 37.1543 4.63281C37.2309 4.54087 37.3254 4.4668 37.4378 4.41061C37.5502 4.35442 37.6677 4.31355 37.7903 4.28801C37.918 4.25736 38.0355 4.24204 38.1427 4.24204C38.2858 4.24204 38.4186 4.27269 38.5412 4.33398C38.6638 4.39017 38.7557 4.48468 38.817 4.61749C38.8068 4.77584 38.794 4.93675 38.7787 5.10021C38.7634 5.25856 38.7608 5.41692 38.771 5.57527V5.82813C38.8477 5.82813 38.909 5.81025 38.9549 5.77449C39.006 5.73362 39.0494 5.6902 39.0852 5.64423C39.126 5.59315 39.1669 5.54718 39.2078 5.50631C39.2538 5.46034 39.3125 5.43224 39.384 5.42203C39.4147 5.33519 39.4581 5.25601 39.5143 5.1845C39.5705 5.10787 39.6267 5.0338 39.6828 4.96229C39.8259 4.90099 39.9587 4.82692 40.0813 4.74008C40.2039 4.64814 40.3265 4.5613 40.4491 4.47957C40.5717 4.39273 40.6994 4.31866 40.8322 4.25736C40.9701 4.19606 41.1259 4.16541 41.2996 4.16541C41.4426 4.16541 41.5703 4.19862 41.6827 4.26502C41.8002 4.33143 41.9074 4.41316 42.0045 4.51022H42.0811C42.2293 4.51022 42.3697 4.54597 42.5026 4.61749C42.6354 4.68389 42.7554 4.76818 42.8627 4.87034C42.9597 4.95718 43.0312 5.0338 43.0772 5.10021C43.1232 5.16151 43.1538 5.22536 43.1692 5.29177C43.1896 5.35817 43.1998 5.4348 43.1998 5.52163C43.2049 5.60337 43.2151 5.70553 43.2305 5.82813C43.2407 5.88942 43.2509 5.94817 43.2611 6.00436C43.2713 6.06055 43.2764 6.11674 43.2764 6.17293ZM54.5706 9.04627C54.5706 9.13311 54.5604 9.21484 54.54 9.29147C54.5246 9.36809 54.4889 9.44216 54.4327 9.51367V9.6899C54.4327 9.87891 54.402 10.0705 54.3407 10.2646C54.2794 10.4536 54.1901 10.6221 54.0726 10.7703C54.0828 10.8163 54.0879 10.8622 54.0879 10.9082C54.0879 10.9542 54.0879 10.9976 54.0879 11.0385C54.0879 11.2275 54.07 11.3756 54.0343 11.4829C53.9985 11.5901 53.9551 11.6795 53.904 11.7511C53.8529 11.8175 53.7993 11.8788 53.7431 11.9349C53.692 11.986 53.6486 12.0524 53.6128 12.1342C53.5515 12.2823 53.5158 12.4432 53.5056 12.6169C53.5005 12.7855 53.4851 12.9489 53.4596 13.1073C53.3727 13.2197 53.291 13.3371 53.2144 13.4597C53.1429 13.5823 53.0637 13.6998 52.9769 13.8122C52.8951 13.9297 52.8032 14.0344 52.701 14.1264C52.5989 14.2234 52.4788 14.3026 52.3409 14.3639C52.2847 14.3434 52.2234 14.3307 52.157 14.3256C52.0957 14.3205 52.0293 14.3154 51.9578 14.3102C51.8914 14.3051 51.825 14.2949 51.7586 14.2796C51.6973 14.2694 51.6411 14.2464 51.59 14.2106C51.5134 14.0778 51.4495 13.9373 51.3984 13.7892C51.3474 13.6411 51.3218 13.4878 51.3218 13.3295C51.3218 13.2835 51.3295 13.2222 51.3448 13.1456C51.3601 13.0741 51.378 13 51.3984 12.9234C51.424 12.8416 51.4495 12.7676 51.4751 12.7012C51.5006 12.6297 51.5236 12.5786 51.544 12.5479C51.5593 12.5224 51.5747 12.5096 51.59 12.5096C51.6104 12.5045 51.6258 12.4841 51.636 12.4483C51.6513 12.4126 51.6615 12.3691 51.6666 12.3181C51.6717 12.2619 51.6743 12.2057 51.6743 12.1495C51.6743 12.0933 51.6743 12.0397 51.6743 11.9886C51.6743 11.9324 51.6768 11.8813 51.6819 11.8353C51.7279 11.7894 51.7841 11.7204 51.8505 11.6285C51.922 11.5314 51.9884 11.4292 52.0497 11.322C52.1161 11.2147 52.1749 11.1125 52.226 11.0155C52.2822 10.9133 52.3205 10.8316 52.3409 10.7703C52.3613 10.7192 52.3741 10.663 52.3792 10.6017C52.3894 10.5404 52.3971 10.4817 52.4022 10.4255C52.4124 10.3693 52.4277 10.3157 52.4482 10.2646C52.4686 10.2084 52.5018 10.1573 52.5478 10.1113V9.65925C52.5631 9.65415 52.581 9.62861 52.6014 9.58263C52.627 9.53666 52.6525 9.48047 52.678 9.41406C52.7087 9.34766 52.7368 9.27359 52.7623 9.19186C52.7879 9.11013 52.8108 9.0335 52.8313 8.96199C52.8568 8.89047 52.8747 8.82662 52.8849 8.77043C52.9002 8.71424 52.9079 8.67593 52.9079 8.6555C52.9079 8.58909 52.9002 8.52779 52.8849 8.4716C52.8696 8.41541 52.8619 8.35667 52.8619 8.29537C52.8619 8.23918 52.8773 8.19066 52.9079 8.14979C52.9386 8.10382 52.9539 8.05273 52.9539 7.99654C52.9539 7.97611 52.9488 7.92248 52.9386 7.83564C52.9283 7.74369 52.9181 7.64663 52.9079 7.54447C52.8977 7.44231 52.8875 7.35036 52.8773 7.26863C52.867 7.1869 52.8619 7.14093 52.8619 7.13071C52.8262 7.03876 52.7674 6.95703 52.6857 6.88552C52.604 6.80889 52.512 6.74504 52.4099 6.69396C52.3077 6.63777 52.203 6.59435 52.0957 6.5637C51.9884 6.53305 51.8888 6.51773 51.7969 6.51773C51.7305 6.51773 51.6692 6.53561 51.613 6.57136C51.5619 6.60712 51.5134 6.6531 51.4674 6.70928C51.4214 6.76037 51.378 6.81656 51.3371 6.87785C51.3014 6.93915 51.2656 6.99279 51.2299 7.03876V7.13071H51.1379C51.0715 7.20733 51.0179 7.28395 50.977 7.36058C50.9413 7.4372 50.9106 7.51127 50.8851 7.58278C50.8595 7.64919 50.834 7.7156 50.8084 7.782C50.788 7.8433 50.7599 7.89949 50.7242 7.95057C50.6986 7.98122 50.6578 8.01187 50.6016 8.04252C50.5505 8.07317 50.5096 8.10382 50.479 8.13447V8.24174C50.4432 8.26728 50.4075 8.2826 50.3717 8.28771C50.3359 8.29282 50.3027 8.3107 50.2721 8.34135L50.1801 8.54056C50.0984 8.6887 50.0065 8.83428 49.9043 8.97731C49.8021 9.11523 49.7204 9.25826 49.6591 9.4064C49.6438 9.44727 49.6387 9.49069 49.6438 9.53666C49.6489 9.57752 49.6387 9.61839 49.6131 9.65925C49.5978 9.70012 49.5774 9.73077 49.5518 9.7512C49.5314 9.76653 49.5212 9.79718 49.5212 9.84315C49.5212 9.89423 49.5288 9.9402 49.5442 9.98107C49.5595 10.0219 49.5672 10.0654 49.5672 10.1113C49.5672 10.3054 49.5595 10.5021 49.5442 10.7013C49.5288 10.9005 49.5212 11.0972 49.5212 11.2913C49.5212 11.3782 49.5288 11.465 49.5442 11.5518C49.5595 11.6336 49.5672 11.7127 49.5672 11.7894C49.5365 11.8507 49.5212 11.9196 49.5212 11.9962C49.5212 12.0984 49.5365 12.2031 49.5672 12.3104C49.5978 12.4177 49.6131 12.5275 49.6131 12.6399C49.6131 12.7063 49.6029 12.7727 49.5825 12.8391C49.5621 12.9004 49.5416 12.9617 49.5212 13.023C49.5008 13.0843 49.4803 13.1456 49.4599 13.2069C49.4446 13.2733 49.442 13.3397 49.4522 13.4061C49.3296 13.5338 49.2096 13.636 49.0921 13.7126C48.9746 13.7943 48.8188 13.8352 48.6247 13.8352C48.5838 13.8352 48.5455 13.8301 48.5098 13.8199C48.4791 13.8148 48.4434 13.8122 48.4025 13.8122C48.3208 13.756 48.2595 13.6922 48.2186 13.6206C48.1828 13.5542 48.1547 13.4827 48.1343 13.4061C48.119 13.3346 48.1062 13.2605 48.096 13.1839C48.0858 13.1073 48.0679 13.0306 48.0424 12.954C48.0322 12.9336 48.0194 12.9157 48.0041 12.9004C47.9887 12.8851 47.9709 12.8697 47.9504 12.8544C47.9351 12.834 47.9198 12.8084 47.9044 12.7778C47.8942 12.7471 47.8891 12.7012 47.8891 12.6399C47.8891 12.5581 47.8993 12.4815 47.9198 12.41C47.9402 12.3385 47.9504 12.2644 47.9504 12.1878C47.9504 12.1316 47.9428 12.0754 47.9274 12.0192C47.9121 11.963 47.9044 11.9017 47.9044 11.8353C47.9044 11.7894 47.9121 11.7434 47.9274 11.6974C47.9428 11.6514 47.9504 11.6055 47.9504 11.5595C47.9504 11.4778 47.9325 11.3986 47.8968 11.322C47.861 11.2453 47.8431 11.1662 47.8431 11.0844C47.8431 11.0078 47.8559 10.9389 47.8815 10.8776C47.9121 10.8163 47.9351 10.7498 47.9504 10.6783C47.9198 10.6477 47.9044 10.6119 47.9044 10.5711C47.9044 10.5302 47.9121 10.4893 47.9274 10.4485C47.9428 10.4076 47.9504 10.3642 47.9504 10.3182C47.9504 10.2058 47.9325 10.096 47.8968 9.98873C47.861 9.87635 47.8431 9.76142 47.8431 9.64393C47.8431 9.54688 47.8534 9.44982 47.8738 9.35276C47.8942 9.25571 47.9044 9.15865 47.9044 9.0616C47.8942 8.91857 47.8891 8.7781 47.8891 8.64017C47.8891 8.49715 47.8891 8.35412 47.8891 8.21109C47.8891 8.06295 47.8891 7.91737 47.8891 7.77434C47.8891 7.63131 47.8942 7.48573 47.9044 7.33759C47.9044 7.2814 47.9121 7.22776 47.9274 7.17668C47.9428 7.12049 47.9504 7.0643 47.9504 7.00811C47.9504 6.96725 47.9377 6.93404 47.9121 6.9085C47.8917 6.88296 47.8687 6.85742 47.8431 6.83188C47.8176 6.74504 47.8074 6.6582 47.8125 6.57136C47.8227 6.47942 47.7997 6.39513 47.7435 6.31851H47.6822C47.6516 6.31851 47.6363 6.3466 47.6363 6.40279C47.6363 6.45388 47.6363 6.49219 47.6363 6.51773C47.6107 6.56881 47.5801 6.61478 47.5443 6.65565C47.5086 6.69651 47.4728 6.73738 47.4371 6.77825C47.4064 6.81911 47.3758 6.86508 47.3451 6.91617C47.3145 6.96214 47.2966 7.01833 47.2915 7.08474C47.2302 7.08984 47.1791 7.11028 47.1382 7.14603C47.1025 7.17668 47.0718 7.21499 47.0463 7.26097C47.0207 7.30694 46.9952 7.35547 46.9697 7.40655C46.9492 7.45763 46.9211 7.50105 46.8854 7.53681C46.8598 7.56235 46.8317 7.58023 46.8011 7.59044C46.7755 7.59555 46.75 7.61088 46.7245 7.63642C46.6478 7.72837 46.5789 7.83053 46.5176 7.94291C46.4563 8.05529 46.3746 8.1549 46.2724 8.24174C46.2724 8.32347 46.2571 8.40264 46.2264 8.47927C46.1958 8.55078 46.16 8.62485 46.1191 8.70147C46.0783 8.77299 46.0374 8.84706 45.9965 8.92368C45.9608 8.99519 45.9378 9.07181 45.9276 9.15355C45.8918 9.31701 45.8816 9.48813 45.8969 9.66692C45.9174 9.84059 45.9276 10.0092 45.9276 10.1726V11.8736C45.9276 12.032 45.9199 12.1878 45.9046 12.341C45.8893 12.4943 45.8816 12.645 45.8816 12.7931C45.8816 12.8902 45.8893 12.9821 45.9046 13.069C45.9199 13.1558 45.9276 13.2477 45.9276 13.3448C45.9276 13.4316 45.9123 13.521 45.8816 13.613C45.7948 13.6998 45.6773 13.7535 45.5291 13.7739C45.3861 13.7994 45.2559 13.8122 45.1384 13.8122C44.9494 13.8122 44.8191 13.7943 44.7476 13.7586C44.6761 13.7228 44.625 13.6794 44.5944 13.6283C44.5637 13.5823 44.5382 13.5338 44.5177 13.4827C44.4973 13.4316 44.4437 13.3908 44.3568 13.3601C44.3568 13.3448 44.3594 13.3269 44.3645 13.3065C44.3696 13.2861 44.3721 13.2682 44.3721 13.2529C44.3721 13.1864 44.3619 13.1252 44.3415 13.069C44.3211 13.0128 44.3108 12.954 44.3108 12.8927C44.3108 12.7957 44.3262 12.7088 44.3568 12.6322C44.3875 12.5556 44.4028 12.4688 44.4028 12.3717C44.4028 12.2133 44.3875 12.0575 44.3568 11.9043C44.3262 11.7459 44.3108 11.5876 44.3108 11.4292C44.3108 11.3526 44.3262 11.2811 44.3568 11.2147C44.3875 11.1432 44.4028 11.0691 44.4028 10.9925C44.4028 10.9465 44.3951 10.9031 44.3798 10.8622C44.3645 10.8163 44.3568 10.7703 44.3568 10.7243C44.3568 10.6783 44.3645 10.6324 44.3798 10.5864C44.3951 10.5404 44.4028 10.497 44.4028 10.4561C44.4028 10.3642 44.39 10.2773 44.3645 10.1956C44.3389 10.1088 44.3262 10.0194 44.3262 9.92743C44.3262 9.8457 44.3338 9.76653 44.3492 9.6899C44.3645 9.61328 44.3721 9.5341 44.3721 9.45237C44.3721 9.26337 44.3594 9.07948 44.3338 8.90069C44.3083 8.7168 44.3006 8.53035 44.3108 8.34135C44.3211 7.95823 44.3185 7.58023 44.3032 7.20733C44.2879 6.83444 44.2802 6.45898 44.2802 6.08098C44.2802 5.85622 44.2853 5.63401 44.2955 5.41436C44.3057 5.1896 44.3262 4.9674 44.3568 4.74775C44.4794 4.63537 44.5714 4.54853 44.6327 4.48723C44.694 4.42593 44.7553 4.38251 44.8166 4.35697C44.8779 4.32632 44.9519 4.30844 45.0388 4.30334C45.1307 4.29823 45.2686 4.29312 45.4525 4.28801H45.5675C45.5981 4.34931 45.6339 4.41061 45.6747 4.47191C45.7156 4.5281 45.7539 4.58684 45.7897 4.64814C45.8305 4.70944 45.8637 4.77329 45.8893 4.83969C45.9148 4.90099 45.9276 4.96995 45.9276 5.04657C45.9276 5.13852 45.9199 5.23302 45.9046 5.33008C45.8893 5.42203 45.8816 5.51397 45.8816 5.60592C45.8816 5.70808 45.8842 5.8128 45.8893 5.92007C45.8995 6.02734 45.9276 6.12695 45.9736 6.2189H46.0042C46.0246 6.2189 46.0681 6.17803 46.1345 6.0963C46.2009 6.01457 46.2673 5.92007 46.3337 5.8128C46.4052 5.70553 46.4691 5.60337 46.5252 5.50631C46.5865 5.40415 46.6223 5.33774 46.6325 5.30709C46.6632 5.27133 46.7066 5.23813 46.7628 5.20748C46.819 5.17683 46.8777 5.14618 46.939 5.11553C47.0054 5.07978 47.0693 5.04657 47.1306 5.01593C47.1919 4.98017 47.2455 4.94186 47.2915 4.90099C47.317 4.87545 47.3374 4.84991 47.3528 4.82437C47.3732 4.79883 47.3987 4.77329 47.4294 4.74775C47.4651 4.73242 47.5009 4.72476 47.5367 4.72476C47.5775 4.71965 47.6158 4.71454 47.6516 4.70944C47.6874 4.70433 47.7206 4.69411 47.7512 4.67879C47.787 4.66346 47.8176 4.63792 47.8431 4.60216C47.9504 4.60727 48.0577 4.60983 48.165 4.60983C48.2773 4.60983 48.3872 4.61749 48.4944 4.63281C48.6017 4.64814 48.7039 4.67623 48.8009 4.7171C48.898 4.75796 48.9848 4.81926 49.0614 4.90099C49.1074 4.94697 49.1432 5.0006 49.1687 5.0619C49.1943 5.1232 49.2172 5.18705 49.2377 5.25346C49.2581 5.31475 49.2811 5.37605 49.3066 5.43735C49.3322 5.49865 49.3654 5.55484 49.4063 5.60592V5.79748C49.4063 5.92518 49.4216 6.04778 49.4522 6.16526C49.4829 6.28275 49.5059 6.40024 49.5212 6.51773C49.5672 6.51262 49.6029 6.4973 49.6285 6.47175C49.6591 6.44621 49.6821 6.41556 49.6974 6.37981C49.7178 6.34405 49.7357 6.30829 49.7511 6.27254C49.7715 6.23167 49.7945 6.19847 49.82 6.17293C49.9324 6.0299 50.055 5.90475 50.1878 5.79748C50.3206 5.6851 50.456 5.58038 50.5939 5.48332C50.7369 5.38627 50.8825 5.29688 51.0306 5.21514C51.1839 5.12831 51.3346 5.03891 51.4827 4.94697C51.5593 4.9061 51.6462 4.87545 51.7432 4.85502C51.8454 4.82948 51.9501 4.81415 52.0574 4.80904C52.1647 4.79883 52.2694 4.79372 52.3715 4.79372C52.4737 4.79372 52.5682 4.79372 52.655 4.79372C52.7317 4.79372 52.793 4.80138 52.8389 4.81671C52.8849 4.83203 52.9258 4.85246 52.9615 4.878C52.9973 4.89844 53.0331 4.92653 53.0688 4.96229C53.1046 4.99294 53.1505 5.02614 53.2067 5.0619C53.3447 5.14874 53.4545 5.22025 53.5362 5.27644C53.6179 5.32752 53.692 5.37861 53.7584 5.42969C53.8248 5.47566 53.8963 5.53185 53.973 5.59826C54.0496 5.66466 54.1492 5.7515 54.2718 5.85877C54.2718 5.89964 54.2692 5.9405 54.2641 5.98137C54.259 6.01713 54.2565 6.05544 54.2565 6.0963C54.2565 6.13717 54.2616 6.17293 54.2718 6.20358C54.2871 6.22912 54.2999 6.25721 54.3101 6.28786C54.3254 6.31851 54.3382 6.35938 54.3484 6.41046C54.3637 6.45643 54.3714 6.52284 54.3714 6.60968C54.3714 6.64032 54.3739 6.66587 54.3791 6.6863C54.3893 6.70162 54.3995 6.71695 54.4097 6.73227C54.425 6.74249 54.4378 6.75526 54.448 6.77058C54.4582 6.78591 54.4685 6.80634 54.4787 6.83188L54.5706 7.78966C54.5706 7.86118 54.5553 7.93014 54.5246 7.99654C54.494 8.05784 54.4787 8.12425 54.4787 8.19576C54.4787 8.33879 54.494 8.48182 54.5246 8.62485C54.5553 8.76277 54.5706 8.90325 54.5706 9.04627ZM62.8229 11.9043C62.8075 11.9809 62.7871 12.0473 62.7616 12.1035C62.7411 12.1546 62.7207 12.2082 62.7003 12.2644C62.6849 12.3155 62.6722 12.3717 62.662 12.433C62.6568 12.4943 62.6594 12.5684 62.6696 12.6552C62.6236 12.6807 62.5904 12.7165 62.57 12.7625C62.5496 12.8033 62.5317 12.8493 62.5164 12.9004C62.5062 12.9464 62.4934 12.9949 62.4781 13.046C62.4678 13.0971 62.4474 13.1405 62.4168 13.1762C62.3044 13.1405 62.192 13.1252 62.0796 13.1303C61.9672 13.1354 61.8549 13.1379 61.7425 13.1379C61.625 13.1379 61.5356 13.1277 61.4743 13.1073C61.413 13.0919 61.3389 13.046 61.2521 12.9694C61.1908 12.9081 61.1295 12.8825 61.0682 12.8927C61.012 12.9029 60.9584 12.9055 60.9073 12.9004C60.8613 12.8953 60.823 12.8621 60.7924 12.8008C60.7668 12.7344 60.7541 12.6016 60.7541 12.4023C60.7541 12.3717 60.7515 12.3385 60.7464 12.3027C60.7413 12.267 60.7234 12.2338 60.6928 12.2031C60.5599 12.2338 60.4373 12.29 60.325 12.3717C60.2126 12.4483 60.1053 12.53 60.0032 12.6169C59.901 12.6986 59.7988 12.7701 59.6967 12.8314C59.5945 12.8927 59.4872 12.9183 59.3748 12.9081C59.3187 12.9642 59.265 13.0204 59.2139 13.0766C59.1629 13.1328 59.1016 13.1813 59.03 13.2222C58.9943 13.2375 58.933 13.2554 58.8462 13.2758C58.7644 13.2963 58.6776 13.3142 58.5856 13.3295C58.4937 13.3448 58.4043 13.3576 58.3175 13.3678C58.2306 13.3831 58.1693 13.3908 58.1336 13.3908C58.0263 13.3908 57.9011 13.355 57.7581 13.2835C57.6151 13.2171 57.4721 13.1456 57.329 13.069C57.1911 12.9923 57.0608 12.9259 56.9382 12.8697C56.8157 12.8084 56.716 12.788 56.6394 12.8084C56.5832 12.7625 56.5424 12.7063 56.5168 12.6399C56.4913 12.5684 56.4504 12.5045 56.3942 12.4483C56.3278 12.3921 56.2563 12.3462 56.1797 12.3104C56.1031 12.2746 56.0367 12.221 55.9805 12.1495C55.9447 12.0984 55.9166 12.0448 55.8962 11.9886C55.8809 11.9273 55.863 11.866 55.8425 11.8047C55.8272 11.7383 55.8068 11.6744 55.7812 11.6131C55.7608 11.5518 55.7276 11.4956 55.6816 11.4446C55.7021 11.3577 55.7148 11.2505 55.72 11.1227C55.7251 10.995 55.7327 10.8673 55.7429 10.7396C55.7583 10.6068 55.7812 10.4842 55.8119 10.3718C55.8477 10.2595 55.9038 10.1777 55.9805 10.1267V10.0654C55.9805 9.907 56.006 9.7793 56.0571 9.68224C56.1082 9.58008 56.172 9.49069 56.2486 9.41406C56.3253 9.33233 56.4096 9.25571 56.5015 9.18419C56.5934 9.11268 56.6777 9.02584 56.7544 8.92368C56.8003 8.88792 56.8489 8.87515 56.8999 8.88537C56.951 8.89047 57.0021 8.88026 57.0532 8.85472L57.0992 8.76277C57.1247 8.75255 57.1477 8.75 57.1681 8.75511C57.1885 8.76022 57.2064 8.76277 57.2218 8.76277C57.2473 8.76277 57.2728 8.75255 57.2984 8.73212C57.3239 8.71169 57.3495 8.69126 57.375 8.67082C57.4005 8.64528 57.4261 8.6223 57.4516 8.60186C57.4823 8.58143 57.5155 8.57121 57.5512 8.57121C57.5666 8.57121 57.5844 8.57632 57.6049 8.58654C57.6253 8.59165 57.6432 8.59931 57.6585 8.60953C57.6943 8.55334 57.7351 8.50481 57.7811 8.46394C57.8322 8.41797 57.8833 8.37455 57.9343 8.33368C57.9854 8.29282 58.034 8.25195 58.0799 8.21109C58.131 8.16511 58.1744 8.11403 58.2102 8.05784C58.2306 8.06806 58.2613 8.07317 58.3021 8.07317C58.3481 8.07317 58.3839 8.06295 58.4094 8.04252C58.4349 8.01698 58.4605 7.99144 58.486 7.9659C58.5167 7.93525 58.5499 7.90971 58.5856 7.88927C58.6214 7.86373 58.675 7.85096 58.7465 7.85096C58.7619 7.85096 58.7925 7.84075 58.8385 7.82031C58.8845 7.79988 58.933 7.77689 58.9841 7.75135C59.0352 7.7207 59.0837 7.69261 59.1297 7.66707C59.1756 7.63642 59.2088 7.61343 59.2293 7.59811L59.3135 7.58278C59.3595 7.58278 59.4029 7.593 59.4438 7.61343C59.4847 7.62876 59.5281 7.64153 59.5741 7.65174C59.6405 7.58534 59.7069 7.52148 59.7733 7.46019C59.8397 7.39889 59.8933 7.32482 59.9342 7.23798C60.0006 7.21755 60.0772 7.17924 60.1641 7.12305C60.2509 7.06686 60.3326 7.003 60.4093 6.93149C60.491 6.85998 60.5574 6.78335 60.6085 6.70162C60.6647 6.61478 60.6928 6.53305 60.6928 6.45643C60.6928 6.3747 60.6698 6.29552 60.6238 6.2189C60.5829 6.14228 60.5344 6.06821 60.4782 5.99669C60.422 5.92007 60.3658 5.84345 60.3096 5.76683C60.2535 5.6902 60.2126 5.61103 60.187 5.5293H60.1564C60.0951 5.5293 60.0389 5.5012 59.9878 5.44501C59.9419 5.38371 59.8882 5.3454 59.8269 5.33008C59.7758 5.30965 59.7222 5.29943 59.666 5.29943C59.6098 5.29943 59.5536 5.29943 59.4974 5.29943C59.4413 5.29943 59.3851 5.29432 59.3289 5.2841C59.2778 5.27389 59.2293 5.2509 59.1833 5.21514C59.0811 5.23558 58.9994 5.27389 58.9381 5.33008C58.8768 5.38116 58.8155 5.4348 58.7542 5.49099C58.6929 5.54718 58.6214 5.5957 58.5397 5.63657C58.4579 5.67233 58.3481 5.6851 58.2102 5.67488C58.1182 5.86388 58.034 6.06055 57.9573 6.26487C57.8858 6.4692 57.7862 6.6582 57.6585 6.83188C57.6279 6.94426 57.5972 7.05664 57.5666 7.16902C57.541 7.27629 57.4899 7.36824 57.4133 7.44486C57.3111 7.47551 57.2064 7.49084 57.0992 7.49084C56.9868 7.49084 56.8616 7.4704 56.7237 7.42954C56.5909 7.38356 56.4657 7.32227 56.3483 7.24564C56.2308 7.16902 56.1312 7.07963 56.0494 6.97746C55.9728 6.87019 55.9345 6.75526 55.9345 6.63266C55.9345 6.49985 55.96 6.36959 56.0111 6.24189C56.0673 6.10907 56.0954 5.97115 56.0954 5.82813C56.1669 5.80258 56.2231 5.76172 56.264 5.70553C56.3048 5.64934 56.3406 5.5906 56.3712 5.5293C56.407 5.46289 56.4428 5.40159 56.4785 5.3454C56.5194 5.28921 56.573 5.24579 56.6394 5.21514V5.15385C56.6394 5.10787 56.6522 5.07467 56.6777 5.05424C56.7033 5.0287 56.7084 4.98272 56.6931 4.91632C56.928 4.7784 57.1145 4.59195 57.2524 4.35697C57.3392 4.31611 57.4312 4.2829 57.5282 4.25736C57.6253 4.23182 57.7172 4.19606 57.8041 4.15009C57.8807 4.11944 57.9522 4.07602 58.0186 4.01983C58.0901 3.96364 58.1693 3.92278 58.2562 3.89724C58.3839 3.87169 58.509 3.86914 58.6316 3.88957C58.7593 3.9049 58.8819 3.91256 58.9994 3.91256C59.1016 3.91256 59.1884 3.89213 59.2599 3.85126C59.3365 3.8104 59.4259 3.78996 59.5281 3.78996C59.6303 3.78996 59.7324 3.79763 59.8346 3.81295C59.9367 3.82317 60.0389 3.83594 60.1411 3.85126C60.187 3.86148 60.2279 3.87936 60.2637 3.9049C60.3045 3.92533 60.348 3.94321 60.3939 3.95853C60.5523 3.98918 60.6672 4.00706 60.7387 4.01217C60.8102 4.01217 60.8715 4.02239 60.9226 4.04282C60.9737 4.06325 61.0273 4.10412 61.0835 4.16541C61.1397 4.2216 61.2291 4.32121 61.3517 4.46424H61.3824C61.4488 4.46424 61.5177 4.48978 61.5892 4.54087C61.6608 4.58684 61.7272 4.64558 61.7885 4.7171C61.8549 4.7835 61.9111 4.85502 61.957 4.93164C62.003 5.00316 62.0362 5.06701 62.0566 5.1232C62.0873 5.19982 62.1052 5.2841 62.1103 5.37605C62.1154 5.46289 62.1333 5.54462 62.1639 5.62124C62.1946 5.69276 62.2329 5.75916 62.2788 5.82046C62.3248 5.88176 62.3682 5.94306 62.4091 6.00436C62.4551 6.06566 62.4934 6.12951 62.524 6.19591C62.5598 6.26232 62.5777 6.33383 62.5777 6.41046C62.5777 6.51262 62.5649 6.61223 62.5394 6.70928C62.5189 6.80123 62.5087 6.89573 62.5087 6.99279C62.5087 7.07963 62.5266 7.16391 62.5623 7.24564C62.6032 7.32227 62.6236 7.404 62.6236 7.49084C62.6236 7.60322 62.6032 7.71049 62.5623 7.81265C62.5266 7.91481 62.5087 8.02209 62.5087 8.13447C62.5087 8.2826 62.5266 8.43074 62.5623 8.57888C62.6032 8.72701 62.6543 8.8726 62.7156 9.01563C62.6849 9.10757 62.6696 9.20718 62.6696 9.31445C62.6696 9.46259 62.6849 9.60817 62.7156 9.7512C62.7462 9.88912 62.7616 10.0296 62.7616 10.1726C62.7616 10.2441 62.7539 10.3105 62.7386 10.3718C62.7233 10.4331 62.7054 10.4944 62.6849 10.5557C62.6645 10.617 62.6466 10.6783 62.6313 10.7396C62.616 10.8009 62.6083 10.8699 62.6083 10.9465C62.6083 11.11 62.6288 11.2709 62.6696 11.4292C62.7105 11.5876 62.7616 11.7459 62.8229 11.9043ZM61.0069 9.4064C61.0069 9.30935 60.9992 9.2174 60.9839 9.13056C60.9686 9.04372 60.9609 8.95177 60.9609 8.85472C60.9609 8.74745 60.9431 8.66827 60.9073 8.61719C60.8715 8.56611 60.8 8.54567 60.6928 8.55589H60.5931C60.5216 8.6223 60.4552 8.69381 60.3939 8.77043C60.3377 8.84706 60.2688 8.91346 60.187 8.96965C60.1155 9.01563 60.0364 9.04883 59.9495 9.06926C59.8627 9.08969 59.7912 9.13822 59.735 9.21484H59.7043C59.6328 9.21484 59.5715 9.22761 59.5204 9.25316C59.4693 9.27359 59.4183 9.29657 59.3672 9.32212C59.3161 9.34255 59.2599 9.36043 59.1986 9.37575C59.1424 9.39108 59.0709 9.39108 58.9841 9.37575C58.9023 9.50346 58.8232 9.63627 58.7465 9.77419C58.6699 9.907 58.5601 10.0092 58.4171 10.0807L58.2868 10.0654C58.1949 10.0602 58.1004 10.0705 58.0033 10.096C57.9114 10.1215 57.8271 10.1599 57.7504 10.2109C57.6789 10.262 57.6202 10.3259 57.5742 10.4025C57.5282 10.4791 57.5053 10.5711 57.5053 10.6783C57.5053 10.8163 57.5257 10.921 57.5666 10.9925C57.6074 11.0589 57.6585 11.1151 57.7198 11.1611C57.7811 11.2019 57.8475 11.2402 57.919 11.276C57.9905 11.3117 58.0569 11.3679 58.1182 11.4446C58.1744 11.4548 58.2332 11.4573 58.2945 11.4522C58.3558 11.4471 58.4171 11.4446 58.4784 11.4446C58.5192 11.4446 58.5601 11.4471 58.601 11.4522C58.6469 11.4522 58.6852 11.465 58.7159 11.4905C58.7772 11.4343 58.8283 11.3935 58.8691 11.3679C58.91 11.3373 58.979 11.3271 59.076 11.3373C59.1935 11.1892 59.3391 11.0742 59.5128 10.9925C59.6864 10.9108 59.8601 10.8418 60.0338 10.7856C60.044 10.7294 60.067 10.6809 60.1028 10.64C60.1436 10.5992 60.187 10.5634 60.233 10.5328C60.279 10.497 60.325 10.4663 60.3709 10.4408C60.4169 10.4102 60.4552 10.3744 60.4859 10.3335C60.5165 10.3029 60.5599 10.2441 60.6161 10.1573C60.6774 10.0705 60.7362 9.97852 60.7924 9.88146C60.8537 9.7793 60.9047 9.6848 60.9456 9.59796C60.9865 9.51112 61.0069 9.44727 61.0069 9.4064ZM70.646 6.17293C70.646 6.26998 70.6282 6.36448 70.5924 6.45643C70.5617 6.54838 70.5464 6.64288 70.5464 6.73993C70.5362 6.81656 70.5337 6.89573 70.5388 6.97746C70.5439 7.05409 70.5464 7.13071 70.5464 7.20733C70.5464 7.26863 70.5362 7.33759 70.5158 7.41421C70.4953 7.49084 70.4724 7.56746 70.4468 7.64408C70.4264 7.7156 70.4085 7.78456 70.3932 7.85096C70.383 7.91226 70.383 7.9659 70.3932 8.01187C70.3217 8.06806 70.2655 8.12425 70.2246 8.18044C70.1889 8.23152 70.1761 8.30559 70.1863 8.40264C70.125 8.42819 70.0765 8.45628 70.0407 8.48693C70.0101 8.51247 69.959 8.52013 69.8875 8.50992C69.8466 8.60186 69.7955 8.68359 69.7342 8.75511C69.6729 8.82662 69.604 8.89303 69.5273 8.95433C69.4558 9.01563 69.3792 9.07692 69.2975 9.13822C69.2209 9.19441 69.1468 9.25316 69.0753 9.31445C68.9629 9.28891 68.8531 9.27614 68.7458 9.27614C68.6385 9.27614 68.5287 9.25571 68.4163 9.21484C68.2988 9.05649 68.212 8.8726 68.1558 8.66316C68.1047 8.44862 68.0562 8.24685 68.0102 8.05784C68.0255 8.01698 68.0664 7.95313 68.1328 7.86629C68.1992 7.77434 68.2733 7.67984 68.355 7.58278C68.4419 7.48573 68.5236 7.39889 68.6002 7.32227C68.6768 7.24564 68.7356 7.20222 68.7764 7.19201C68.802 7.07452 68.8352 6.95959 68.8761 6.84721C68.9169 6.73483 68.9374 6.61478 68.9374 6.48708C68.9374 6.33894 68.8837 6.2189 68.7764 6.12695C68.659 6.15249 68.567 6.20613 68.5006 6.28786C68.4342 6.36448 68.3576 6.43089 68.2707 6.48708C68.1839 6.48708 68.1073 6.4973 68.0409 6.51773C67.9745 6.53816 67.9004 6.54327 67.8187 6.53305C67.7676 6.54327 67.7293 6.56626 67.7037 6.60201C67.6782 6.63266 67.6526 6.66587 67.6271 6.70162C67.6016 6.73738 67.5684 6.77314 67.5275 6.80889C67.4866 6.84465 67.4279 6.87275 67.3513 6.89318C67.3462 6.9034 67.3359 6.92127 67.3206 6.94681C67.3104 6.97236 67.2951 7.00045 67.2746 7.0311C67.2593 7.06175 67.244 7.0924 67.2287 7.12305C67.2185 7.1537 67.2108 7.17668 67.2057 7.19201H67.0984C67.0575 7.2482 67.0243 7.30694 66.9988 7.36824C66.9784 7.42954 66.9426 7.49084 66.8915 7.55213C66.8456 7.61854 66.7919 7.69261 66.7306 7.77434C66.6693 7.85096 66.608 7.93269 66.5467 8.01953C66.4905 8.10637 66.442 8.19576 66.4011 8.28771C66.3654 8.37455 66.3475 8.46394 66.3475 8.55589C66.3475 8.61208 66.3552 8.66572 66.3705 8.7168C66.3858 8.76277 66.3935 8.80874 66.3935 8.85472C66.3935 8.9671 66.3756 9.07948 66.3398 9.19186C66.3092 9.29913 66.2939 9.4064 66.2939 9.51367C66.2939 9.58519 66.3015 9.6567 66.3169 9.72822C66.3373 9.79973 66.3475 9.87124 66.3475 9.94276C66.3475 10.05 66.3271 10.1547 66.2862 10.2569C66.2505 10.3591 66.2326 10.4689 66.2326 10.5864C66.2326 10.7192 66.2402 10.852 66.2556 10.9848C66.276 11.1125 66.2964 11.2428 66.3169 11.3756C66.3424 11.5084 66.3628 11.6438 66.3782 11.7817C66.3986 11.9145 66.4088 12.0499 66.4088 12.1878C66.4088 12.3615 66.3807 12.5173 66.3245 12.6552C66.2734 12.7931 66.2275 12.9438 66.1866 13.1073C66.0844 13.1788 65.9618 13.2503 65.8188 13.3218C65.6809 13.3984 65.5481 13.4367 65.4204 13.4367C65.3182 13.4367 65.239 13.4061 65.1828 13.3448C65.1267 13.2835 65.0909 13.2043 65.0756 13.1073C64.9479 13.0613 64.8329 12.9949 64.7308 12.9081C64.7257 12.8416 64.7052 12.7803 64.6695 12.7242C64.6388 12.668 64.6031 12.6118 64.5622 12.5556C64.5264 12.4994 64.4932 12.4407 64.4626 12.3794C64.4319 12.313 64.4166 12.2363 64.4166 12.1495C64.4166 12.0575 64.4294 11.9656 64.4549 11.8736C64.4805 11.7766 64.4932 11.677 64.4932 11.5748C64.4932 11.5391 64.4907 11.5084 64.4856 11.4829C64.4805 11.4522 64.4779 11.4241 64.4779 11.3986C64.4779 11.3628 64.4856 11.3322 64.5009 11.3066C64.5162 11.2811 64.5316 11.2581 64.5469 11.2377C64.5622 11.2121 64.5775 11.1866 64.5928 11.1611C64.6082 11.1355 64.6158 11.0998 64.6158 11.0538C64.6158 11.0231 64.6082 10.9976 64.5928 10.9772C64.5775 10.9516 64.5596 10.9286 64.5392 10.9082C64.5188 10.8827 64.5009 10.8571 64.4856 10.8316C64.4703 10.8009 64.4626 10.7652 64.4626 10.7243C64.4626 10.52 64.4754 10.3208 64.5009 10.1267C64.5264 9.92743 64.5392 9.72311 64.5392 9.51367C64.5392 9.39108 64.529 9.26848 64.5086 9.14588C64.4932 9.02329 64.4473 8.91091 64.3706 8.80874C64.4013 8.76788 64.4217 8.72446 64.4319 8.67849C64.4422 8.6274 64.4473 8.57632 64.4473 8.52524C64.4473 8.40264 64.4345 8.28005 64.409 8.15745C64.3834 8.02975 64.3706 7.90204 64.3706 7.77434C64.3706 7.65685 64.3885 7.54703 64.4243 7.44486C64.46 7.3427 64.4779 7.20222 64.4779 7.02344C64.4779 6.97236 64.4856 6.92383 64.5009 6.87785C64.5162 6.83188 64.5239 6.78591 64.5239 6.73993C64.5239 6.7195 64.5137 6.67864 64.4932 6.61734C64.4728 6.55604 64.4473 6.48197 64.4166 6.39513C64.3911 6.30829 64.3681 6.21379 64.3477 6.11163C64.3272 6.00436 64.317 5.89453 64.317 5.78215C64.317 5.66977 64.3323 5.55228 64.363 5.42969C64.3987 5.30198 64.4166 5.14618 64.4166 4.96229C64.4166 4.83459 64.4524 4.72476 64.5239 4.63281C64.6005 4.54087 64.695 4.4668 64.8074 4.41061C64.9198 4.35442 65.0373 4.31355 65.1599 4.28801C65.2876 4.25736 65.405 4.24204 65.5123 4.24204C65.6553 4.24204 65.7882 4.27269 65.9108 4.33398C66.0334 4.39017 66.1253 4.48468 66.1866 4.61749C66.1764 4.77584 66.1636 4.93675 66.1483 5.10021C66.133 5.25856 66.1304 5.41692 66.1406 5.57527V5.82813C66.2172 5.82813 66.2785 5.81025 66.3245 5.77449C66.3756 5.73362 66.419 5.6902 66.4548 5.64423C66.4956 5.59315 66.5365 5.54718 66.5774 5.50631C66.6233 5.46034 66.6821 5.43224 66.7536 5.42203C66.7843 5.33519 66.8277 5.25601 66.8839 5.1845C66.9401 5.10787 66.9962 5.0338 67.0524 4.96229C67.1955 4.90099 67.3283 4.82692 67.4509 4.74008C67.5735 4.64814 67.6961 4.5613 67.8187 4.47957C67.9413 4.39273 68.069 4.31866 68.2018 4.25736C68.3397 4.19606 68.4955 4.16541 68.6692 4.16541C68.8122 4.16541 68.9399 4.19862 69.0523 4.26502C69.1698 4.33143 69.277 4.41316 69.3741 4.51022H69.4507C69.5989 4.51022 69.7393 4.54597 69.8721 4.61749C70.005 4.68389 70.125 4.76818 70.2323 4.87034C70.3293 4.95718 70.4008 5.0338 70.4468 5.10021C70.4928 5.16151 70.5234 5.22536 70.5388 5.29177C70.5592 5.35817 70.5694 5.4348 70.5694 5.52163C70.5745 5.60337 70.5847 5.70553 70.6001 5.82813C70.6103 5.88942 70.6205 5.94817 70.6307 6.00436C70.6409 6.06055 70.646 6.11674 70.646 6.17293ZM78.5228 12.6552C78.5228 12.8136 78.4871 12.9617 78.4156 13.0996C78.3492 13.2375 78.27 13.3652 78.178 13.4827H78.1474C78.0299 13.4776 77.9124 13.4955 77.7949 13.5364C77.6825 13.5772 77.5676 13.5977 77.4501 13.5977C77.4246 13.5977 77.4016 13.5977 77.3812 13.5977C77.3607 13.5977 77.3428 13.5925 77.3275 13.5823C77.2611 13.567 77.2024 13.5364 77.1513 13.4904C77.1002 13.4495 77.0542 13.401 77.0134 13.3448C76.9725 13.2937 76.9316 13.2401 76.8908 13.1839C76.8499 13.1277 76.8065 13.0766 76.7605 13.0306C76.7145 12.9847 76.6558 12.9515 76.5843 12.931C76.5179 12.9106 76.4566 12.8748 76.4004 12.8238C76.3748 12.7931 76.3595 12.7599 76.3544 12.7242C76.3544 12.6833 76.3391 12.6501 76.3084 12.6245C76.145 12.4815 75.9815 12.3257 75.8181 12.1572C75.6546 11.9886 75.4835 11.8404 75.3047 11.7127C75.274 11.6872 75.2383 11.6693 75.1974 11.6591C75.1617 11.6489 75.1285 11.631 75.0978 11.6055L75.0365 11.5059C74.9088 11.4446 74.7837 11.3756 74.6611 11.299C74.5436 11.2224 74.4184 11.1559 74.2856 11.0998C74.1732 10.9414 74.0481 10.7958 73.9102 10.663C73.7722 10.5251 73.6088 10.4204 73.4198 10.3489C73.3789 10.4766 73.3508 10.6043 73.3355 10.732C73.3202 10.8546 73.3125 10.9823 73.3125 11.1151V11.9503C73.3125 11.9962 73.3074 12.0473 73.2972 12.1035C73.287 12.1546 73.2767 12.2082 73.2665 12.2644C73.2563 12.341 73.2563 12.4202 73.2665 12.502C73.2767 12.5786 73.2818 12.6552 73.2818 12.7318C73.2818 12.8084 73.2512 12.8825 73.1899 12.954C73.1337 13.0255 73.0622 13.0894 72.9754 13.1456C72.8936 13.2069 72.8042 13.2554 72.7072 13.2912C72.6152 13.3269 72.5335 13.3448 72.462 13.3448C72.3547 13.3448 72.2704 13.3295 72.2091 13.2988C72.1529 13.2733 72.1019 13.2401 72.0559 13.1992C72.015 13.1584 71.9716 13.1124 71.9256 13.0613C71.8797 13.0102 71.8184 12.9642 71.7417 12.9234C71.7315 12.8008 71.7187 12.6858 71.7034 12.5786C71.6881 12.4713 71.6728 12.3666 71.6574 12.2644C71.6421 12.1572 71.6268 12.0524 71.6115 11.9503C71.6013 11.843 71.5962 11.7281 71.5962 11.6055C71.5962 11.4778 71.614 11.3526 71.6498 11.23C71.6907 11.1074 71.7111 10.9797 71.7111 10.8469C71.7111 10.7396 71.706 10.6298 71.6958 10.5174C71.6855 10.3999 71.6804 10.285 71.6804 10.1726C71.6804 10.05 71.7009 9.93254 71.7417 9.82016C71.7826 9.70778 71.803 9.60051 71.803 9.49835C71.803 9.45237 71.7954 9.40895 71.78 9.36809C71.7647 9.32722 71.7571 9.28125 71.7571 9.23017C71.7571 9.15865 71.7596 9.08969 71.7647 9.02329C71.7698 8.95177 71.7724 8.88026 71.7724 8.80874C71.7724 8.72191 71.7622 8.63762 71.7417 8.55589C71.7264 8.47416 71.6958 8.39754 71.6498 8.32602C71.66 8.23918 71.683 8.16001 71.7187 8.08849C71.7545 8.01698 71.7673 7.9378 71.7571 7.85096V7.75901C71.7417 7.75901 71.729 7.75646 71.7187 7.75135C71.7085 7.75135 71.7009 7.7488 71.6958 7.74369C71.6958 7.65685 71.7136 7.56235 71.7494 7.46019C71.7852 7.35802 71.803 7.25841 71.803 7.16136C71.803 7.11538 71.7954 7.07197 71.78 7.0311C71.7647 6.99023 71.7571 6.94426 71.7571 6.89318C71.7571 6.87785 71.7724 6.8421 71.803 6.78591C71.8337 6.72972 71.849 6.66587 71.849 6.59435C71.849 6.52794 71.8388 6.46154 71.8184 6.39513C71.7979 6.32362 71.7749 6.25466 71.7494 6.18825C71.7239 6.12185 71.7009 6.05544 71.6804 5.98903C71.66 5.92263 71.6498 5.85367 71.6498 5.78215C71.6498 5.71064 71.66 5.64423 71.6804 5.58293C71.7009 5.51653 71.7111 5.44757 71.7111 5.37605C71.7111 5.30965 71.7009 5.2509 71.6804 5.19982C71.66 5.14874 71.6498 5.09255 71.6498 5.03125C71.6498 4.89844 71.6702 4.76563 71.7111 4.63281C71.7571 4.49489 71.7877 4.35953 71.803 4.22671C71.8132 4.1552 71.8132 4.08624 71.803 4.01983C71.7928 3.94832 71.7877 3.88191 71.7877 3.82061C71.7877 3.77464 71.7903 3.72867 71.7954 3.68269C71.8056 3.63672 71.8235 3.59841 71.849 3.56776C71.7928 3.38897 71.7443 3.19997 71.7034 3.00075C71.6677 2.80153 71.6498 2.60487 71.6498 2.41076C71.6498 2.26773 71.6345 2.12725 71.6038 1.98933C71.5783 1.8463 71.5655 1.70328 71.5655 1.56025C71.5655 1.44276 71.5859 1.3406 71.6268 1.25376C71.6677 1.16181 71.7417 1.09029 71.849 1.03921C71.8541 0.983023 71.8669 0.937049 71.8873 0.901292C71.9129 0.860427 71.941 0.82467 71.9716 0.794021C72.0074 0.763372 72.0406 0.732723 72.0712 0.702073C72.107 0.671424 72.1376 0.633113 72.1632 0.58714C72.2193 0.576923 72.273 0.569261 72.3241 0.564153C72.3803 0.559045 72.4364 0.556491 72.4926 0.556491C72.5795 0.556491 72.651 0.566707 72.7072 0.58714C72.7634 0.602464 72.8119 0.630559 72.8528 0.671424C72.8987 0.707182 72.937 0.753155 72.9677 0.809345C72.9983 0.860427 73.0341 0.921725 73.075 0.993239C73.1414 1.11073 73.1976 1.1899 73.2435 1.23077C73.2946 1.27163 73.3355 1.31505 73.3661 1.36103C73.3968 1.40189 73.4172 1.4683 73.4274 1.56025C73.4428 1.64709 73.4504 1.79778 73.4504 2.01232C73.4504 2.07873 73.4479 2.15535 73.4428 2.24219C73.4428 2.32392 73.4402 2.4082 73.4351 2.49504C73.43 2.57677 73.4249 2.6585 73.4198 2.74023C73.4198 2.82197 73.4198 2.89348 73.4198 2.95478C73.4198 2.98543 73.4172 3.04928 73.4121 3.14633C73.407 3.24339 73.4019 3.34811 73.3968 3.46049C73.3917 3.56776 73.3866 3.66992 73.3815 3.76698C73.3763 3.86403 73.3738 3.92788 73.3738 3.95853C73.3738 4.07091 73.3815 4.17819 73.3968 4.28035C73.4121 4.38251 73.4198 4.48468 73.4198 4.58684C73.4198 4.68389 73.4121 4.78095 73.3968 4.878C73.3815 4.96995 73.3738 5.06701 73.3738 5.16917C73.3738 5.24579 73.3815 5.32497 73.3968 5.4067C73.4172 5.48332 73.4376 5.55995 73.4581 5.63657C73.4785 5.71319 73.4964 5.79237 73.5117 5.8741C73.5321 5.95583 73.5424 6.04011 73.5424 6.12695C73.5424 6.39769 73.5194 6.66331 73.4734 6.92383C73.4274 7.17924 73.4044 7.44231 73.4044 7.71304C73.4044 7.76923 73.4044 7.82797 73.4044 7.88927C73.4044 7.95057 73.4096 8.01187 73.4198 8.07317C73.476 8.06806 73.5194 8.05273 73.55 8.02719C73.5858 8.00165 73.6139 7.971 73.6343 7.93525C73.6599 7.89949 73.6828 7.86118 73.7033 7.82031C73.7237 7.77945 73.7492 7.74369 73.7799 7.71304C73.8054 7.68239 73.8386 7.65941 73.8795 7.64408C73.9204 7.62365 73.9561 7.593 73.9868 7.55213C74.0123 7.52659 74.0276 7.49594 74.0327 7.46019C74.0379 7.41932 74.0532 7.38356 74.0787 7.35291C74.1247 7.28651 74.1834 7.22776 74.255 7.17668C74.3316 7.1256 74.3929 7.06941 74.4388 7.00811C74.4542 6.98257 74.4618 6.95703 74.4618 6.93149C74.4618 6.90084 74.4695 6.87275 74.4848 6.84721C74.5001 6.82166 74.5385 6.78846 74.5998 6.7476C74.6611 6.70673 74.707 6.67353 74.7377 6.64799C74.7428 6.57136 74.7607 6.51007 74.7913 6.46409C74.8271 6.41812 74.8603 6.37215 74.8909 6.32617C74.9267 6.2802 74.9548 6.22912 74.9752 6.17293C74.9956 6.11163 75.0007 6.03245 74.9905 5.9354C75.0518 5.90986 75.1131 5.88176 75.1744 5.85111C75.2357 5.81535 75.2945 5.77704 75.3507 5.73618C75.412 5.59315 75.486 5.45523 75.5729 5.32242C75.6648 5.1896 75.7746 5.07467 75.9023 4.97761C75.9177 4.79883 75.9585 4.65069 76.0249 4.5332C76.0913 4.41061 76.1705 4.30334 76.2625 4.21139C76.3544 4.11433 76.4515 4.02239 76.5536 3.93555C76.6609 3.8436 76.7631 3.73633 76.8601 3.61373C76.901 3.60352 76.9367 3.59841 76.9674 3.59841C76.998 3.59841 77.0338 3.59841 77.0747 3.59841C77.2483 3.59841 77.4016 3.62906 77.5344 3.69035C77.6672 3.75165 77.7975 3.84105 77.9252 3.95853C77.9507 4.04026 77.966 4.122 77.9712 4.20373C77.9814 4.28035 77.9865 4.36208 77.9865 4.44892C77.9865 4.70944 77.9277 4.96484 77.8102 5.21514C77.6928 5.46034 77.5114 5.65445 77.2662 5.79748C77.256 5.90986 77.2305 6.00691 77.1896 6.08864C77.1538 6.17037 77.1104 6.247 77.0593 6.31851C77.0083 6.38492 76.9521 6.45388 76.8908 6.52539C76.8346 6.5918 76.7758 6.66842 76.7145 6.75526C76.6839 6.80123 76.6609 6.85231 76.6456 6.9085C76.6303 6.95959 76.6022 7.00811 76.5613 7.05409C76.5 7.13071 76.4489 7.19201 76.408 7.23798C76.3723 7.27885 76.3416 7.31971 76.3161 7.36058C76.2957 7.40144 76.2778 7.45252 76.2625 7.51382C76.2471 7.57001 76.2318 7.65174 76.2165 7.75901C76.145 7.82031 76.0684 7.87395 75.9866 7.91992C75.9049 7.9659 75.8283 8.01698 75.7568 8.07317C75.7159 8.16511 75.6546 8.26217 75.5729 8.36433C75.4911 8.4665 75.4017 8.56866 75.3047 8.67082C75.2127 8.76788 75.1182 8.86493 75.0212 8.96199C74.9241 9.05394 74.8449 9.14333 74.7837 9.23017C74.8092 9.34766 74.896 9.47536 75.0442 9.61328C75.1923 9.7512 75.3583 9.89168 75.5422 10.0347C75.7261 10.1777 75.9049 10.3208 76.0786 10.4638C76.2574 10.6017 76.3851 10.7294 76.4617 10.8469C76.5434 10.8469 76.62 10.8622 76.6916 10.8929C76.7631 10.9184 76.8397 10.9363 76.9214 10.9465C76.9725 10.9874 77.0134 11.0359 77.044 11.0921C77.0798 11.1483 77.1155 11.207 77.1513 11.2683C77.187 11.3296 77.2254 11.3909 77.2662 11.4522C77.3071 11.5084 77.3582 11.5595 77.4195 11.6055C77.4705 11.6463 77.5216 11.6668 77.5727 11.6668C77.6238 11.6668 77.6723 11.6821 77.7183 11.7127C77.7438 11.723 77.7617 11.7383 77.7719 11.7587C77.7873 11.774 77.8077 11.7894 77.8332 11.8047C77.8588 11.82 77.8818 11.8302 77.9022 11.8353C77.9226 11.8353 77.9456 11.8404 77.9712 11.8507C78.1295 11.9375 78.2598 12.0499 78.3619 12.1878C78.4692 12.3206 78.5228 12.4764 78.5228 12.6552ZM86.7444 8.372C86.7444 8.561 86.7291 8.73468 86.6985 8.89303C86.6729 9.04627 86.6474 9.21229 86.6218 9.39108C86.6065 9.50346 86.5989 9.61328 86.5989 9.72055C86.604 9.82782 86.5937 9.93765 86.5682 10.05C86.5427 10.1369 86.5069 10.2212 86.4609 10.3029C86.415 10.3795 86.3664 10.4561 86.3154 10.5328C86.2643 10.6094 86.2132 10.6886 86.1621 10.7703C86.1161 10.8469 86.0804 10.9261 86.0548 11.0078C86.0344 11.0742 86.0191 11.1432 86.0089 11.2147C86.0038 11.2862 85.9935 11.3577 85.9782 11.4292C85.9629 11.5008 85.9425 11.5697 85.9169 11.6361C85.8914 11.7025 85.8531 11.7638 85.802 11.82C85.7713 11.8609 85.7305 11.8941 85.6794 11.9196C85.6334 11.9401 85.59 11.9707 85.5491 12.0116C85.5083 12.0575 85.4827 12.1112 85.4725 12.1725C85.4623 12.2287 85.4419 12.2797 85.4112 12.3257H85.3039C85.2784 12.3513 85.2631 12.3819 85.258 12.4177C85.2529 12.4534 85.235 12.4917 85.2043 12.5326C85.143 12.5939 85.0511 12.6629 84.9285 12.7395C84.8059 12.8161 84.668 12.8927 84.5147 12.9694C84.3615 13.046 84.198 13.12 84.0243 13.1916C83.8507 13.2631 83.6821 13.3269 83.5186 13.3831C83.3603 13.4393 83.2096 13.4827 83.0666 13.5134C82.9286 13.5491 82.8163 13.567 82.7294 13.567C82.663 13.567 82.6145 13.5593 82.5838 13.544C82.5583 13.5338 82.5379 13.5185 82.5225 13.498C82.5072 13.4827 82.4919 13.4674 82.4766 13.4521C82.4612 13.4419 82.4306 13.4367 82.3846 13.4367C82.3182 13.4367 82.2544 13.4444 82.1931 13.4597C82.1318 13.4751 82.0705 13.4827 82.0092 13.4827C81.9274 13.4827 81.8508 13.4572 81.7793 13.4061C81.7129 13.3601 81.6414 13.309 81.5648 13.2529C81.4881 13.1967 81.4013 13.143 81.3042 13.0919C81.2072 13.046 81.0897 13.0255 80.9518 13.0306C80.9313 13.0051 80.9032 12.9694 80.8675 12.9234C80.8368 12.8723 80.8036 12.8212 80.7679 12.7701C80.7372 12.7191 80.704 12.6731 80.6683 12.6322C80.6376 12.5862 80.6121 12.553 80.5916 12.5326C80.5508 12.4917 80.5023 12.4662 80.4461 12.456C80.395 12.4407 80.3439 12.4126 80.2928 12.3717C80.2673 12.3564 80.2494 12.3334 80.2392 12.3027C80.2341 12.2721 80.2162 12.244 80.1855 12.2184C80.16 12.2031 80.1345 12.198 80.1089 12.2031C80.0834 12.2031 80.063 12.1904 80.0476 12.1648C80.0272 12.1495 80.0093 12.1239 79.994 12.0882C79.9838 12.0524 79.971 12.0167 79.9557 11.9809C79.9404 11.9401 79.9199 11.9043 79.8944 11.8736C79.8739 11.843 79.8407 11.8251 79.7948 11.82C79.7948 11.7434 79.7743 11.6744 79.7335 11.6131C79.6926 11.5467 79.6594 11.4803 79.6339 11.4139C79.6083 11.3424 79.5904 11.2734 79.5802 11.207C79.5751 11.1355 79.5572 11.0691 79.5266 11.0078C79.5011 10.9465 79.4704 10.8929 79.4346 10.8469C79.3989 10.8009 79.3631 10.7575 79.3274 10.7166C79.2967 10.6758 79.2686 10.6298 79.2431 10.5787C79.2227 10.5225 79.2124 10.4561 79.2124 10.3795C79.2124 10.2671 79.2227 10.1573 79.2431 10.05C79.2635 9.94276 79.2737 9.83293 79.2737 9.72055C79.2737 9.60306 79.2559 9.48558 79.2201 9.36809C79.1843 9.2506 79.1665 9.128 79.1665 9.0003C79.1665 8.76022 79.1946 8.52524 79.2508 8.29537C79.3069 8.0604 79.335 7.82287 79.335 7.58278C79.335 7.48062 79.3223 7.38356 79.2967 7.29162C79.2712 7.19456 79.2584 7.09495 79.2584 6.99279C79.2584 6.92127 79.2712 6.84976 79.2967 6.77825C79.3223 6.70673 79.3682 6.64543 79.4346 6.59435C79.4449 6.57903 79.4474 6.56115 79.4423 6.54072C79.4372 6.52028 79.4346 6.5024 79.4346 6.48708C79.4346 6.47175 79.4423 6.44111 79.4576 6.39513C79.473 6.34916 79.4883 6.30063 79.5036 6.24955C79.524 6.19336 79.5419 6.13717 79.5572 6.08098C79.5726 6.02479 79.5828 5.98137 79.5879 5.95072C79.593 5.89964 79.6032 5.85877 79.6185 5.82813C79.639 5.79748 79.662 5.77194 79.6875 5.7515C79.7181 5.72596 79.7462 5.70297 79.7718 5.68254C79.7973 5.657 79.8203 5.62635 79.8407 5.5906C79.8816 5.51908 79.8969 5.44501 79.8867 5.36839C79.8765 5.28666 79.8918 5.21004 79.9327 5.13852L80.0476 5.09255C80.0834 5.01082 80.1115 4.95463 80.1319 4.92398C80.1523 4.89333 80.1702 4.8729 80.1855 4.86268C80.2009 4.84736 80.2162 4.83714 80.2315 4.83203C80.2468 4.82692 80.2673 4.80904 80.2928 4.7784C80.3081 4.76307 80.3158 4.74264 80.3158 4.7171C80.3158 4.68645 80.3235 4.65835 80.3388 4.63281C80.3643 4.59195 80.4052 4.55874 80.4614 4.5332C80.5176 4.50766 80.561 4.47446 80.5916 4.43359C80.6223 4.39273 80.6453 4.34931 80.6606 4.30334C80.681 4.25225 80.7117 4.21139 80.7526 4.18074C80.7985 4.13477 80.8624 4.09901 80.9441 4.07347C81.0258 4.04793 81.0974 4.01472 81.1587 3.97386C81.2148 3.93299 81.2608 3.88957 81.2966 3.8436C81.3374 3.79252 81.3911 3.75421 81.4575 3.72867C81.4932 3.71334 81.5443 3.69546 81.6107 3.67503C81.6771 3.6546 81.7461 3.63672 81.8176 3.62139C81.8942 3.60607 81.9657 3.5933 82.0322 3.58308C82.0986 3.57287 82.1522 3.56776 82.1931 3.56776C82.3105 3.56776 82.4229 3.58308 82.5302 3.61373C82.6426 3.64438 82.755 3.65971 82.8673 3.65971C82.9644 3.65971 83.0563 3.65204 83.1432 3.63672C83.23 3.62139 83.3169 3.61373 83.4037 3.61373C83.6233 3.61373 83.8123 3.63672 83.9707 3.68269C84.1342 3.72356 84.2746 3.77975 84.3921 3.85126C84.5147 3.91767 84.622 3.99174 84.7139 4.07347C84.811 4.1552 84.9004 4.23438 84.9821 4.311C85.0639 4.38251 85.1456 4.44892 85.2273 4.51022C85.309 4.57151 85.401 4.61238 85.5032 4.63281C85.5338 4.72987 85.59 4.80394 85.6717 4.85502C85.7586 4.9061 85.8377 4.96484 85.9093 5.03125C85.9195 5.11298 85.9399 5.1896 85.9706 5.26112C86.0012 5.33263 86.0344 5.40415 86.0702 5.47566C86.1059 5.54207 86.1417 5.60847 86.1774 5.67488C86.2132 5.74129 86.2413 5.8128 86.2617 5.88942C86.2873 5.97115 86.2975 6.05033 86.2924 6.12695C86.2873 6.20358 86.2975 6.27764 86.323 6.34916C86.3537 6.47175 86.3945 6.5918 86.4456 6.70928C86.4967 6.82166 86.5376 6.9366 86.5682 7.05409C86.5886 7.13071 86.5989 7.20733 86.5989 7.28395C86.5989 7.36058 86.6065 7.43465 86.6218 7.50616C86.6525 7.66451 86.6806 7.80754 86.7061 7.93525C86.7317 8.06295 86.7444 8.20853 86.7444 8.372ZM85.143 8.28005C85.143 8.20853 85.1251 8.14724 85.0894 8.09615C85.0587 8.03996 85.0306 7.97867 85.0051 7.91226C84.9489 7.76412 84.9183 7.60832 84.9132 7.44486C84.9132 7.27629 84.8902 7.11538 84.8442 6.96214C84.8136 6.85487 84.7523 6.73227 84.6603 6.59435C84.5684 6.45643 84.4636 6.32106 84.3462 6.18825C84.2287 6.05544 84.1061 5.9354 83.9784 5.82813C83.8558 5.71575 83.7434 5.63657 83.6412 5.5906L83.5723 5.48332C83.5416 5.468 83.5033 5.46034 83.4573 5.46034C83.4114 5.46034 83.3679 5.45267 83.3271 5.43735C83.2096 5.39648 83.0972 5.35562 82.9899 5.31475C82.8827 5.26878 82.7626 5.24579 82.6298 5.24579C82.4561 5.24579 82.3208 5.27389 82.2237 5.33008C82.1267 5.38116 82.0424 5.4399 81.9709 5.50631C81.8993 5.56761 81.8304 5.62635 81.764 5.68254C81.6976 5.73362 81.6107 5.75661 81.5035 5.7515C81.5035 5.83323 81.4856 5.90475 81.4498 5.96605C81.4192 6.02224 81.3809 6.07587 81.3349 6.12695C81.2889 6.17803 81.2429 6.22912 81.197 6.2802C81.151 6.33128 81.1178 6.39002 81.0974 6.45643C81.0871 6.4973 81.0744 6.57392 81.059 6.6863C81.0488 6.79868 81.0386 6.92383 81.0284 7.06175C81.0182 7.19456 81.0105 7.32227 81.0054 7.44486C81.0003 7.56746 80.9977 7.65685 80.9977 7.71304C80.9977 7.73858 80.9926 7.76412 80.9824 7.78966C80.9722 7.8152 80.962 7.84075 80.9518 7.86629C80.9416 8.01442 80.9339 8.16511 80.9288 8.31836C80.9237 8.4665 80.9211 8.61463 80.9211 8.76277C80.9211 8.81896 80.9288 8.9058 80.9441 9.02329C80.9594 9.13567 80.9799 9.26593 81.0054 9.41406C81.0309 9.55709 81.059 9.71034 81.0897 9.8738C81.1203 10.0322 81.151 10.1828 81.1816 10.3259C81.2174 10.4689 81.2506 10.5992 81.2812 10.7166C81.3119 10.829 81.34 10.9108 81.3655 10.9618C81.3911 11.018 81.4217 11.0614 81.4575 11.0921C81.4932 11.1227 81.5239 11.1636 81.5494 11.2147C81.5648 11.2402 81.5724 11.2658 81.5724 11.2913C81.5724 11.3169 81.5852 11.3424 81.6107 11.3679C81.6618 11.4241 81.7231 11.4675 81.7946 11.4982C81.8712 11.5288 81.9428 11.5697 82.0092 11.6208C82.0909 11.6412 82.1496 11.6693 82.1854 11.7051C82.2212 11.7357 82.2595 11.7689 82.3003 11.8047C82.3463 11.8353 82.405 11.8634 82.4766 11.889C82.5532 11.9094 82.6732 11.9196 82.8367 11.9196C82.9184 11.9196 82.9695 11.9094 82.9899 11.889C83.0155 11.8685 83.0589 11.8456 83.1202 11.82C83.1764 11.7945 83.2326 11.7817 83.2888 11.7817C83.345 11.7817 83.3935 11.774 83.4343 11.7587C83.5212 11.6668 83.6233 11.5799 83.7408 11.4982C83.8634 11.4165 83.9605 11.322 84.032 11.2147C84.0575 11.1789 84.0678 11.1432 84.0626 11.1074C84.0575 11.0717 84.0678 11.0385 84.0933 11.0078C84.1086 10.9823 84.1316 10.9669 84.1623 10.9618C84.1929 10.9567 84.2159 10.9414 84.2312 10.9159C84.3027 10.8137 84.3538 10.6962 84.3845 10.5634C84.4202 10.4255 84.4739 10.3003 84.5454 10.188C84.576 10.1318 84.6194 10.0858 84.6756 10.05C84.7318 10.0092 84.7727 9.95553 84.7982 9.88912C84.8187 9.83293 84.834 9.76908 84.8442 9.69757C84.8544 9.62605 84.8595 9.55198 84.8595 9.47536C84.8646 9.39874 84.8672 9.32212 84.8672 9.24549C84.8723 9.16887 84.88 9.09736 84.8902 9.03095C84.9004 8.97476 84.9183 8.91346 84.9438 8.84706C84.9745 8.77554 85.0026 8.70658 85.0281 8.64017C85.0587 8.56866 85.0843 8.50225 85.1047 8.44096C85.1303 8.37455 85.143 8.32091 85.143 8.28005Z" fill="white"/>
</svg>
